<svg width="77" height="76" viewBox="0 0 77 76" fill="none" xmlns="http://www.w3.org/2000/svg">
<path fill-rule="evenodd" clip-rule="evenodd" d="M32.6997 0.585032C31.715 1.07566 31.4211 1.46128 30.1141 3.97753C28.6831 6.73191 27.027 9.18472 24.7775 11.8808C19.7234 17.9383 17.1812 19.1307 8.75 19.3974C4.80328 19.5224 4.47156 19.5753 3.03172 20.3116C2.17953 20.7474 1.05422 21.7736 0.482969 22.6361L0 23.3653L0.0015625 32.1275C0.00296875 40.5846 0.151563 44.8946 0.476094 45.9011C0.920156 47.278 3.02766 48.2288 4.44297 47.6907L4.84375 47.5383L4.86234 49.0578C4.8725 49.8936 4.92672 55.5344 4.98266 61.593C5.09562 73.8057 5.04391 73.2357 6.14078 74.3803C7.67812 75.985 10.7362 76.2902 12.4972 75.0146L13.125 74.5597L13.7528 75.0146C15.5484 76.3153 18.6941 75.9688 20.1508 74.3097C21.2158 73.0967 21.1394 74.4169 21.2708 54.9524C21.4545 27.7514 21.4411 28.3935 21.8486 27.3743C22.3237 26.1852 22.9302 25.4586 24.9219 23.6914C27.0839 21.7733 29.4258 19.3749 30.6761 17.7988C32.8013 15.1193 36.2286 9.06347 37.5636 5.62878C38.4562 3.33238 37.8386 1.49488 35.8594 0.559095C34.7988 0.0576887 33.7403 0.0664387 32.6997 0.585032ZM33.1277 2.31784C32.8577 2.54503 32.3181 3.36972 31.9263 4.15378C30.2994 7.40972 28.5347 10.0378 25.7769 13.3118C22.2437 17.5061 19.7437 19.2935 16.0598 20.2591C13.9134 20.8216 12.4914 20.9816 8.58687 21.0996L5.06437 21.206L4.02312 21.7185C2.39125 22.5219 1.24625 24.1033 0.952812 25.9588C0.871875 26.4714 1.03188 29.9878 1.41328 36.0766L1.99797 45.4086L2.41391 45.7664C3.00031 46.2708 3.94531 46.2557 4.4675 45.7335L4.85828 45.3427L4.83547 37.1302C4.81422 29.501 4.83219 28.8961 5.08672 28.6147C5.42766 28.238 5.65016 28.2336 6.09594 28.5946C6.44297 28.8757 6.44594 28.9164 6.54297 34.7274L6.64062 40.5774L13.1388 40.6182L19.6369 40.6589L19.7428 34.4463C19.8189 29.9882 19.9092 28.0064 20.0625 27.4289C20.4327 26.0338 21.0955 25.0277 22.5681 23.6255C28.2163 18.2478 29.2695 17.1028 30.9777 14.4836C33.1006 11.2282 35.7238 6.16128 36.2241 4.34925C36.7222 2.54488 34.5508 1.12034 33.1277 2.31784ZM10.625 4.70816C9.08953 5.17816 7.72547 6.34331 6.92547 7.868C6.53109 8.61956 6.4875 8.85753 6.48609 10.2672C6.48453 11.7222 6.52047 11.9055 6.99797 12.8763C7.59031 14.0805 8.515 14.9743 9.82438 15.608C10.5763 15.9719 10.9061 16.0343 12.1094 16.0397C13.3705 16.0455 13.623 15.9952 14.5561 15.5532C16.4595 14.6513 17.7208 12.8577 17.9152 10.7758C18.1589 8.16519 16.3836 5.54628 13.8623 4.79753C13.0323 4.55113 11.295 4.50316 10.625 4.70816ZM10.3906 6.65284C8.90547 7.35503 8.13422 8.61597 8.12844 10.3514C8.11359 14.7763 14.0887 15.9674 15.9252 11.9055C16.5158 10.5993 16.255 8.80144 15.3084 7.653C14.2117 6.32269 12.0284 5.87863 10.3906 6.65284ZM49.4531 10.421C45.3169 11.1491 41.7405 12.8864 39.0037 15.4972C37.55 16.8841 36.6181 18.1427 35.8686 19.7319C34.0916 23.4994 34.3719 27.805 36.6305 31.4291L37.1613 32.2807L36.8053 33.226C36.3044 34.556 35.3 36.5053 34.5469 37.6086C33.2617 39.4914 33.9219 39.9482 37.0077 39.3114C38.6977 38.9627 40.0309 38.5007 41.4802 37.7614L42.7344 37.1219L44.0091 37.7089C46.7367 38.9649 49.7336 39.5742 53.1945 39.5764C58.9603 39.58 63.8809 37.7652 67.5147 34.2947C70.2725 31.6608 71.6211 28.9086 71.8269 25.4935C72.2391 18.6571 66.4859 12.4628 57.9688 10.573C56.3414 10.2118 51.1658 10.1194 49.4531 10.421ZM51.1719 11.9082C44.7922 12.5916 39.5552 15.8488 37.3545 20.5021C36.6244 22.046 36.3481 23.5458 36.4512 25.4068C36.5706 27.5613 37.1508 29.2388 38.4284 31.1243C38.6905 31.511 38.9052 31.9468 38.9056 32.0927C38.9067 32.5496 37.9772 34.95 37.2581 36.3478C36.8791 37.0843 36.6206 37.6868 36.6834 37.6868C36.9156 37.6868 38.8547 37.0869 39.6875 36.7574C40.1602 36.5703 41.0239 36.131 41.6069 35.781L42.6667 35.1446L44.1069 35.8628C46.9928 37.3024 49.6178 37.8882 53.2031 37.8928C55.8539 37.8961 57.6002 37.6386 59.7989 36.9202C68.0392 34.2274 72.1694 27.0597 69.2238 20.5635C67.705 17.2138 64.3098 14.3753 60.09 12.9277C57.5159 12.0446 53.8314 11.6233 51.1719 11.9082ZM44.1495 19.9091C43.828 20.368 43.8427 20.5919 44.2188 20.968C44.5238 21.273 44.7395 21.2805 53.2812 21.2805C61.823 21.2805 62.0387 21.273 62.3438 20.968C62.7198 20.5919 62.7345 20.368 62.413 19.9091L62.1698 19.5618H53.2812H44.3927L44.1495 19.9091ZM44.1262 24.3274C43.8892 24.6893 43.8892 24.7468 44.1262 25.1086L44.3822 25.4993H53.2812H62.1803L62.4363 25.1086C62.6733 24.7468 62.6733 24.6893 62.4363 24.3274L62.1803 23.9368H53.2812H44.3822L44.1262 24.3274ZM44.2188 28.6243C43.8427 29.0003 43.828 29.2243 44.1495 29.6832L44.3927 30.0305H50.5469H56.7011L56.9442 29.6832C57.2658 29.2243 57.2511 29.0003 56.875 28.6243C56.5733 28.3225 56.3542 28.3118 50.5469 28.3118C44.7395 28.3118 44.5205 28.3225 44.2188 28.6243ZM6.715 46.4758C6.71109 50.6618 7.29328 71.2327 7.44328 72.2103C7.555 72.9391 8.50172 73.876 9.27234 74.0205C10.4542 74.2424 11.8703 73.3041 11.8753 72.2961C11.8763 72.1243 11.982 71.7822 12.1103 71.5361C12.3114 71.1505 12.3438 69.4378 12.3438 59.1644C12.3438 48.5327 12.3703 47.2138 12.5892 46.9947C12.7244 46.8597 12.9655 46.7492 13.125 46.7492C13.2845 46.7492 13.5256 46.8597 13.6608 46.9947C13.8797 47.2138 13.9062 48.5405 13.9062 59.2511C13.9062 65.8791 13.967 71.2997 14.042 71.346C14.1166 71.3921 14.2238 71.7175 14.28 72.0693C14.4178 72.9317 14.7686 73.4233 15.5197 73.8064C16.58 74.3474 17.6959 74.0241 18.5039 72.9417C18.8125 72.5286 18.8337 72.1347 19.0892 62.0921C19.235 56.3605 19.3589 49.5794 19.3645 47.0227L19.375 42.3742H13.0469H6.71875L6.715 46.4758ZM37.3952 45.0113C35.7572 45.6191 34.5827 46.6924 33.7834 48.3117C33.4036 49.0814 33.3594 49.3425 33.3594 50.8117C33.3594 52.3094 33.3992 52.5338 33.8173 53.3864C34.427 54.6302 35.5389 55.7133 36.8373 56.3285C37.7919 56.7807 38.0298 56.8274 39.375 56.8274C40.7091 56.8274 40.9622 56.7786 41.8755 56.3458C43.1783 55.7285 44.2927 54.6136 44.908 53.3122C45.3389 52.4008 45.3884 52.1433 45.3895 50.8117C45.3905 49.4653 45.3442 49.2296 44.8917 48.2741C44.2734 46.9691 43.1866 45.8571 41.9497 45.2643C40.7039 44.6672 38.6323 44.5521 37.3952 45.0113ZM62.3884 44.9357C59.5387 45.8652 57.7241 48.715 58.1286 51.6258C58.8408 56.7494 65.1148 58.6893 68.6444 54.8769C71.4523 51.8438 70.4933 47.0602 66.7214 45.2869C65.8847 44.8936 65.477 44.803 64.3777 44.7658C63.5525 44.738 62.7967 44.8025 62.3884 44.9357ZM37.7286 46.6853C36.1877 47.2325 35.1586 48.6339 35.0356 50.3527C34.8894 52.3966 35.6689 53.8564 37.3572 54.7C39.1092 55.5755 41.0147 55.2985 42.3961 53.9672C43.2766 53.1188 43.6311 52.3238 43.7172 51.0055C43.7852 49.9641 43.7497 49.7866 43.2845 48.8414C42.7594 47.7747 41.9553 47.0374 40.8881 46.6439C40.2045 46.3919 38.4919 46.4144 37.7286 46.6853ZM62.4117 46.7321C60.0841 47.7893 59.0975 50.4669 60.2048 52.7217C61.0469 54.4366 62.5719 55.2907 64.5405 55.1499C68.142 54.8921 69.8628 50.6425 67.4677 47.9214C66.5611 46.8916 65.5442 46.4393 64.1406 46.4417C63.4142 46.443 62.8336 46.5405 62.4117 46.7321ZM32.8728 57.141C31.2992 57.6064 30.6139 57.9902 29.5814 58.9842C28.2361 60.2797 27.6562 61.9572 27.6562 64.5544C27.6562 68.0169 28.7653 70.1038 31.2159 71.2524L32.1094 71.6711H39.3002H46.4909L47.5197 71.1647C49.9167 69.9847 51.0981 67.7805 51.0911 64.5014C51.0823 60.4277 49.2572 57.9525 45.5531 56.991C43.7619 56.526 43.6816 56.5539 41.5309 58.3882C40.4741 59.2896 39.5687 60.0278 39.5191 60.0288C39.4694 60.0297 38.5675 59.2922 37.5147 58.3899C35.6652 56.8046 35.5761 56.7496 34.8706 56.7575C34.4691 56.7621 33.5702 56.9346 32.8728 57.141ZM58.2681 56.9871C55.4089 57.6813 53.5312 59.3714 52.8972 61.8211C52.6111 62.9269 52.5745 65.8799 52.8319 67.0932C53.2144 68.8953 54.4541 70.4322 56.1719 71.2336L57.1094 71.6711H64.2969C71.4384 71.6711 71.4892 71.6689 72.2531 71.3166C73.8512 70.5796 75.0417 69.2669 75.6536 67.5669C76.137 66.2238 76.1331 62.8558 75.6466 61.4635C74.8125 59.0774 73.2309 57.6985 70.5244 56.9978C68.7137 56.5291 68.6488 56.5516 66.488 58.3899C65.4273 59.2922 64.525 60.0305 64.4825 60.0305C64.4402 60.0305 63.5373 59.293 62.4762 58.3917C60.6331 56.8261 60.5155 56.7533 59.8438 56.7641C59.457 56.7702 58.748 56.8707 58.2681 56.9871ZM33.2812 58.7627C31.4092 59.3678 30.4508 60.1283 29.8127 61.5149C29.4878 62.2207 29.4533 62.5227 29.4545 64.6399C29.4558 66.7827 29.4873 67.0471 29.8223 67.7239C30.5205 69.1341 31.8064 69.9321 33.6719 70.113L34.7656 70.2191L34.7686 69.1872L34.7716 68.1555H34.0995C32.8425 68.1555 31.568 67.3536 31.2644 66.3719C30.7278 64.6366 30.9673 63.468 31.8595 63.468C32.4666 63.468 32.6002 63.6905 32.702 64.8713C32.845 66.5288 32.4478 66.4368 39.4592 66.4368C44.5566 66.4368 45.4811 66.4021 45.6794 66.2038C45.8103 66.0728 45.9603 65.5086 46.022 64.9147C46.1487 63.6942 46.2822 63.468 46.875 63.468C47.5641 63.468 47.7052 63.7867 47.6253 65.1644C47.5441 66.5672 47.2102 67.2635 46.378 67.7649C45.9014 68.0521 45.5025 68.0838 41.4614 68.1555C37.4188 68.2274 37.0369 68.2577 36.7348 68.5313C36.5541 68.695 36.4062 69.0203 36.4062 69.2544C36.4062 70.0861 36.5375 70.1086 41.3913 70.1086C45.6256 70.1086 45.8972 70.0911 46.5816 69.7747C47.6156 69.2966 48.4992 68.4357 48.9264 67.4902C49.2589 66.7541 49.2964 66.4497 49.2964 64.4836C49.2964 62.5135 49.2594 62.2141 48.9239 61.4713C48.2483 59.9753 46.4594 58.7535 44.6266 58.5361C43.997 58.4614 43.943 58.4955 41.8902 60.2608C40.7384 61.2513 39.6719 62.0617 39.52 62.0617C39.3683 62.0617 38.2939 61.2532 37.1327 60.2649C34.8041 58.2832 34.7861 58.2761 33.2812 58.7627ZM58.4083 58.6977C56.632 59.1869 55.373 60.126 54.8214 61.3727C54.1445 62.903 54.1509 66.4928 54.833 67.8158C55.5041 69.1177 56.8294 69.9257 58.5938 70.1086L59.6094 70.2139V69.1846V68.1553H58.9403C57.7647 68.1555 56.6519 67.5128 56.147 66.5422C56.0206 66.2994 55.8777 65.628 55.8292 65.05C55.7313 63.8813 55.9433 63.468 56.6406 63.468C57.2469 63.468 57.5 63.8646 57.5 64.8144C57.5 65.5141 57.5697 65.7394 57.8836 66.0532L58.267 66.4368H64.2809H70.2948L70.538 66.0894C70.6803 65.8864 70.7812 65.4144 70.7812 64.9524C70.7812 63.9863 71.1008 63.468 71.6964 63.468C72.3242 63.468 72.5002 63.74 72.4991 64.7102C72.4973 66.4408 71.8303 67.6197 70.6534 67.9722C70.2623 68.0894 68.6686 68.1586 66.2319 68.1642C63.7023 68.1702 62.2434 68.2358 61.8911 68.3596C60.8478 68.7263 60.9894 69.8319 62.1106 70.0732C62.4538 70.1469 64.5625 70.1852 66.7969 70.158L70.8594 70.1086L71.7561 69.6683C72.7705 69.1702 73.6111 68.25 74.0069 67.2044C74.403 66.1582 74.3941 63.0633 73.9914 61.8274C73.4388 60.1305 71.6584 58.7889 69.6145 58.5288C68.9986 58.4503 68.9367 58.4894 66.875 60.2528C65.7148 61.245 64.648 62.058 64.5042 62.0594C64.2244 62.0619 64.067 61.9414 61.5986 59.8364C59.8631 58.3563 59.7692 58.3228 58.4083 58.6977Z" fill="#1FA713"/>
</svg>
