<svg width="80" height="78" viewBox="0 0 80 78" fill="none" xmlns="http://www.w3.org/2000/svg">
<path fill-rule="evenodd" clip-rule="evenodd" d="M32.2097 0.700154C31.2682 1.03047 30.2912 1.89094 29.793 2.8289C29.5237 3.33578 29.4494 3.79828 29.3996 5.2764L29.338 7.0989L27.6744 7.66906C26.7594 7.98265 25.2088 8.62265 24.2285 9.0914L22.446 9.94343L21.3379 8.86968C19.8555 7.43343 19.1305 7.07015 17.7296 7.06218C15.9993 7.05218 15.6365 7.31547 11.1455 11.8402C8.98522 14.0169 7.0885 16.0437 6.93053 16.3445C6.72256 16.7406 6.64225 17.2362 6.63959 18.1414C6.6349 19.7136 6.86428 20.2022 8.34381 21.7705L9.456 22.9494L8.67772 24.5298C8.24959 25.3991 7.60569 26.9539 7.24678 27.9852L6.59412 29.8602L4.66194 29.9383C3.01522 30.0048 2.64631 30.0681 2.166 30.3669C1.311 30.8986 0.769748 31.4977 0.364904 32.3602C0.000529028 33.1367 -0.00165845 33.1772 0.000216551 39.0008C0.0019353 44.5566 0.0184978 44.8966 0.32006 45.5633C0.680998 46.3617 1.381 47.1436 2.18272 47.6439C2.64412 47.9319 3.03162 47.9973 4.66194 48.0633L6.59412 48.1414L7.24678 50.0164C7.60569 51.0477 8.24959 52.6025 8.67772 53.4717L9.456 55.0522L8.34381 56.2311C6.86428 57.7994 6.6349 58.288 6.63959 59.8602C6.64225 60.7653 6.72256 61.2609 6.93053 61.657C7.0885 61.9578 8.98522 63.9847 11.1455 66.1614C15.5732 70.6223 15.9857 70.9252 17.6515 70.9373C19.031 70.9473 19.9044 70.5227 21.3127 69.157L22.446 68.0581L24.2285 68.9102C25.2088 69.3789 26.7594 70.0189 27.6744 70.3325L29.338 70.9027L29.3996 72.7252C29.4708 74.8412 29.6882 75.4089 30.8294 76.4609C32.034 77.5713 32.391 77.6198 38.9332 77.5644C44.1535 77.5202 44.648 77.4928 45.1515 77.2198C46.149 76.6787 46.6588 76.1984 47.1157 75.3686C47.5274 74.6209 47.573 74.3845 47.6258 72.72L47.684 70.8923L48.7224 70.5581C49.2935 70.3742 50.2988 70.0117 50.9565 69.7525L52.1519 69.2812L53.4757 70.352C55.9383 72.3439 58.2585 73.4137 61.2452 73.9345C64.1535 74.4417 67.7897 73.9611 70.4826 72.7137C71.1168 72.4198 71.7283 72.0669 71.8413 71.9291C72.1885 71.5059 72.0096 70.5617 71.5121 70.1917C71.0269 69.8311 71.0785 69.82 68.8233 70.7706C67.1973 71.4561 65.5207 71.707 63.211 71.6108C60.8288 71.5114 59.8258 71.27 57.8619 70.3231C55.0697 68.9769 52.8316 66.7387 51.4854 63.9466C50.5137 61.9311 50.2933 60.9902 50.1991 58.4539C50.1291 56.5742 50.1646 56.0698 50.4512 54.8695C51.6858 49.6981 55.6155 45.7991 60.876 44.5262C62.3218 44.1764 65.3293 44.1781 66.7921 44.5295C68.9663 45.0519 70.5657 45.8014 72.1827 47.0556C76.9154 50.7261 78.7415 56.7094 76.8527 62.3569C76.3182 63.9552 75.7465 65.0183 74.6302 66.4898C73.7122 67.7 73.6294 68.2361 74.2747 68.7911C74.8891 69.3195 75.4069 69.2612 76.0377 68.5925C77.8346 66.6872 79.3594 63.3928 79.8438 60.3697C80.1127 58.6908 79.9688 55.6836 79.5388 54.0008C79.1087 52.3172 77.764 49.563 76.6696 48.1241L75.8246 47.013L76.2493 46.4434C77.0071 45.4269 77.0466 45.0125 76.9957 38.6062L76.9483 32.6648L76.4454 31.8814C75.9596 31.1245 75.5038 30.6997 74.6827 30.2383C74.4333 30.0981 73.5944 29.9902 72.3629 29.9395L70.4335 29.8602L70.0794 28.7664C69.616 27.3345 69.1907 26.287 68.3205 24.4331L67.6068 22.9122L68.7146 21.7459C70.0985 20.2892 70.3402 19.8242 70.4294 18.4477C70.5526 16.5503 70.4247 16.3677 65.6502 11.6169C61.6115 7.59843 61.4504 7.45875 60.5574 7.20031C58.8241 6.6989 57.5124 7.14172 55.738 8.82718L54.5693 9.93734L52.6338 9.015C51.5693 8.50765 50.0199 7.86453 49.1907 7.58578L47.683 7.0789L47.6254 5.2664C47.573 3.61828 47.5268 3.37953 47.1157 2.63297C46.6588 1.80312 46.149 1.32281 45.1515 0.781716C44.6465 0.50781 44.1624 0.482185 38.8233 0.446716C33.5194 0.411404 32.9733 0.432341 32.2097 0.700154ZM32.631 3.14297C32.4048 3.26578 32.1616 3.49156 32.0905 3.64453C32.0194 3.7975 31.9232 4.95797 31.8766 6.22343C31.8018 8.2589 31.756 8.55781 31.4796 8.81625C31.3077 8.97687 30.3233 9.37359 29.2921 9.69781C27.2838 10.3292 25.283 11.1784 23.7129 12.0659C22.0596 13.0005 22.0888 13.007 20.3451 11.3058C18.631 9.63344 18.3816 9.46953 17.5519 9.46953C16.9919 9.46953 16.7758 9.65547 13.1497 13.2586C10.9744 15.4202 9.23928 17.2727 9.11006 17.5717C8.72694 18.4586 8.95272 18.9123 10.639 20.6456C11.706 21.7422 12.1827 22.3458 12.1827 22.5998C12.1827 22.802 11.6913 23.9558 11.0907 25.1637C10.4862 26.3797 9.68131 28.3366 9.28756 29.5477C8.84397 30.912 8.45459 31.838 8.25287 32.0086C7.981 32.2384 7.60537 32.282 5.8999 32.282C3.56537 32.282 2.98115 32.4605 2.58537 33.2942C2.21787 34.0689 2.21787 43.9327 2.58537 44.7073C2.98115 45.5411 3.56537 45.7195 5.8999 45.7195C7.60537 45.7195 7.981 45.7631 8.25287 45.993C8.45459 46.1636 8.84397 47.0895 9.28756 48.4539C9.68131 49.665 10.4862 51.6219 11.0907 52.8378C11.6913 54.0458 12.1827 55.1995 12.1827 55.4017C12.1827 55.6558 11.706 56.2594 10.639 57.3559C8.95272 59.0892 8.72694 59.543 9.11006 60.4298C9.23928 60.7289 10.9744 62.5814 13.1497 64.743C17.9394 69.5023 17.5708 69.4023 20.3451 66.6958C22.0888 64.9945 22.0596 65.0011 23.7129 65.9356C25.283 66.8231 27.2838 67.6723 29.2921 68.3037C30.3233 68.628 31.3077 69.0247 31.4796 69.1853C31.756 69.4437 31.8018 69.7427 31.8766 71.7781C31.9232 73.0436 32.0196 74.2045 32.091 74.3581C32.4121 75.0498 32.8019 75.0945 38.5108 75.0945C44.3176 75.0945 44.5654 75.0634 44.9552 74.2875C45.0619 74.075 45.1574 72.9947 45.184 71.7002C45.2248 69.7133 45.2627 69.4469 45.5421 69.1855C45.714 69.0248 46.6727 68.6359 47.6727 68.3214C48.6727 68.007 49.7426 67.6445 50.0501 67.5161L50.6091 67.2825L49.9868 66.2898C49.2215 65.0692 48.3712 62.9939 48.1016 61.6884C47.9413 60.9123 47.8499 60.7308 47.6583 60.8081C46.6349 61.2208 43.9994 62.003 42.8618 62.2319C40.7582 62.655 35.933 62.6116 33.8369 62.1505C29.0566 61.0992 25.0863 58.9287 21.7524 55.5444C17.7016 51.4322 15.4646 46.547 15.003 40.805C14.4607 34.0573 16.9633 27.2398 21.7541 22.4153C22.5066 21.6575 23.3076 20.9909 23.5338 20.9342C24.5287 20.6845 25.3616 21.5536 24.9893 22.4528C24.8844 22.7056 24.5144 23.1378 24.1668 23.4131C23.2855 24.1111 21.3124 26.537 20.4166 28.0239C16.0577 35.2595 16.3887 44.4012 21.2569 51.2348C23.0608 53.767 25.4863 55.9494 28.1983 57.4805C29.3852 58.1506 32.0987 59.3133 32.4755 59.3133C32.6029 59.3133 32.6515 57.6736 32.6515 53.378V47.4428L31.7313 46.9783C28.4015 45.2973 25.7413 41.7008 24.9001 37.742C24.5616 36.1491 24.6815 33.1184 25.1468 31.5069C26.1135 28.1581 28.7515 24.8291 31.4796 23.5152C33.0496 22.7589 34.2462 23.0106 34.8316 24.2202C35.1307 24.8377 35.1532 25.208 35.1902 30.1041C35.226 34.8567 35.2558 35.3783 35.5208 35.8758C36.4712 37.66 38.2757 38.392 39.8029 37.613C40.6437 37.1841 41.4863 36.1681 41.6977 35.3287C41.8052 34.902 41.8702 32.8116 41.8702 29.7859C41.8702 24.5614 41.9069 24.2836 42.6941 23.5583C43.8983 22.4486 46.0443 23.2691 48.5108 25.7827C50.0127 27.3131 51.0487 29.0019 51.731 31.032C52.1633 32.318 52.2399 32.7927 52.3047 34.5825C52.3685 36.3452 52.328 36.8711 52.0293 38.1639C51.1766 41.8541 48.4479 45.4125 45.2174 47.0469L44.3702 47.4755V53.3944C44.3702 57.278 44.4246 59.3133 44.5282 59.3133C44.6151 59.3133 45.3432 59.0617 46.1462 58.7544L47.6063 58.1955L47.7027 56.8384C48.1541 50.4789 52.2821 45.0222 58.3546 42.7575L59.4483 42.3497L59.5518 41.5736C59.7347 40.2023 59.6874 37.403 59.4554 35.8758C58.2682 28.058 52.7162 21.4214 45.2824 18.9341C40.0013 17.167 33.8449 17.61 28.8687 20.1152C27.9002 20.6027 27.1957 20.4231 26.8958 19.6123C26.6332 18.9025 26.9697 18.4078 28.0988 17.8442C33.6302 15.0825 40.1399 14.6556 46.1276 16.6616C52.5094 18.7997 57.9943 24.0383 60.4672 30.3573C61.6877 33.4761 62.301 37.1734 62.0982 40.1916L61.9919 41.7728L64.2357 41.8489C65.8452 41.9034 66.8551 42.0227 67.8077 42.2708C69.348 42.672 71.6635 43.7256 72.9805 44.6245C73.4851 44.9689 73.9726 45.2508 74.064 45.2508C74.1552 45.2508 74.3318 45.0069 74.4563 44.7089C74.7847 43.9227 74.7885 34.0878 74.4607 33.303C74.1007 32.4416 73.5926 32.282 71.2096 32.282C68.6568 32.282 68.5704 32.2373 68.1116 30.6752C67.4752 28.5078 66.9538 27.1878 65.9004 25.0775C65.3166 23.9078 64.839 22.7869 64.839 22.5864C64.839 22.3347 65.319 21.7341 66.3874 20.6481C68.0949 18.9131 68.3644 18.3555 67.9113 17.4962C67.7812 17.2495 65.961 15.3427 63.8666 13.2586C60.2446 9.65453 60.0299 9.46953 59.4697 9.46953C58.6413 9.46953 58.3901 9.63406 56.6968 11.2859C55.871 12.0916 55.0838 12.7508 54.9476 12.7508C54.8112 12.7508 53.7485 12.2666 52.5857 11.6745C51.296 11.018 49.5718 10.3061 48.1632 9.84875C46.8935 9.43656 45.714 8.96984 45.5421 8.81156C45.2624 8.55406 45.2248 8.29015 45.184 6.3014C45.1349 3.90515 45.0219 3.47844 44.3444 3.12812C43.7137 2.80187 33.2341 2.81515 32.631 3.14297ZM31.7505 26.1344C31.2979 26.4416 30.5244 27.1344 30.0318 27.6742C26.2343 31.8344 26.0849 37.7898 29.6669 42.217C30.6204 43.3953 31.7977 44.3045 33.4524 45.1402C34.2785 45.5573 34.8262 45.9405 34.9507 46.1883C35.0988 46.4833 35.1474 48.2109 35.1491 53.2473L35.1515 59.9158L36.0499 60.035C37.1579 60.182 40.1327 60.1797 41.1238 60.0311L41.8579 59.9209L41.903 53.0784C41.9402 47.4744 41.9882 46.188 42.1683 45.9711C42.2893 45.8255 42.8869 45.4734 43.4965 45.1889C46.5018 43.7858 48.7669 41.093 49.6219 37.907C49.9916 36.5294 50.0007 33.8006 49.6399 32.4383C49.2391 30.9244 48.2068 28.9934 47.2077 27.8892C46.3763 26.9703 44.653 25.5633 44.359 25.5633C44.2858 25.5633 44.2057 27.9028 44.1808 30.7623L44.1358 35.9614L43.6294 36.9897C43.0194 38.2283 41.9013 39.3258 40.6543 39.91C39.9182 40.255 39.5401 40.3287 38.5076 40.3287C37.4099 40.3289 37.1265 40.2661 36.2255 39.8225C34.9866 39.2125 33.8893 38.095 33.3046 36.8473L32.8858 35.9539L32.839 30.7586C32.8132 27.9012 32.7429 25.5661 32.6827 25.5697C32.6226 25.5731 32.203 25.8273 31.7505 26.1344ZM67.8415 50.0686C67.3873 50.2303 66.834 50.5308 66.6118 50.7364C66.3144 51.0116 62.3377 55.6447 62.0896 56.0052C62.0701 56.0333 61.6965 55.8103 61.2593 55.5095C60.2068 54.7855 59.5204 54.5769 58.4552 54.6572C56.8743 54.7764 55.7219 55.5997 55.029 57.1052C54.5416 58.1639 54.5982 59.5414 55.1712 60.5725C55.6551 61.4431 59.7677 64.9905 60.9121 65.5244C62.4241 66.2297 64.254 65.828 65.4791 64.5219C66.9519 62.9517 72.4954 56.1755 72.8073 55.5642C73.2444 54.7073 73.2885 53.2667 72.9051 52.3686C72.0415 50.3458 69.8537 49.352 67.8415 50.0686ZM68.2323 52.5958C68.0129 52.7684 66.9374 53.9812 65.8424 55.2911C64.7474 56.6009 63.5669 57.9716 63.219 58.3367C62.2776 59.325 61.9272 59.2605 60.2605 57.7916C59.4402 57.0687 58.9568 56.9058 58.2546 57.1148C57.1401 57.4469 56.7921 58.8866 57.6124 59.7723C58.4627 60.6905 61.7824 63.3762 62.0963 63.4002C62.7427 63.4491 63.2051 63.3462 63.4882 63.0906C63.6477 62.9467 65.3177 60.9919 67.1993 58.7466C69.489 56.0144 70.6526 54.5033 70.7177 54.1772C70.9977 52.777 69.3415 51.7233 68.2323 52.5958Z" fill="#1FA713"/>
</svg>
