<svg width="171" height="63" viewBox="0 0 171 63" fill="none" xmlns="http://www.w3.org/2000/svg">
<path d="M101.95 50L85.75 31.75L101.6 15H108.95L91.45 33.2L91.5 30.05L109.45 50H101.95ZM80.8 50V15H86.55V50H80.8ZM109.889 50L124.289 15H128.289L142.589 50H136.389L125.189 21.65H127.289L115.989 50H109.889ZM116.989 43.25V38.25H135.539V43.25H116.989ZM147.206 50V15H152.956V50H147.206ZM151.156 50V44.75H169.456V50H151.156Z" fill="#1FA713"/>
<path fill-rule="evenodd" clip-rule="evenodd" d="M21.7363 3.88661C16.5981 5.13432 12.5302 7.47636 8.51622 11.4972C2.81645 17.2081 0.000543725 24.0228 0.000543725 32.1066C0.000543725 38.6323 -0.338145 38.4961 15.8905 38.4961C28.9197 38.4961 29.428 38.4523 29.7259 37.3117C30.0244 36.1665 29.7437 36.1274 21.2238 36.1274C16.3782 36.1274 12.4132 35.9953 12.4132 35.8343C12.4132 35.6726 16.6926 28.5719 21.9225 20.0535C27.153 11.5357 31.5701 4.20639 31.7386 3.7664C32.1505 2.69161 26.3692 2.76149 21.7363 3.88661ZM34.6212 4.54807C34.4356 5.03424 34.2831 5.54292 34.2831 5.67912C34.2831 5.81532 35.8123 5.90947 37.6819 5.88934C40.6047 5.85677 40.8737 5.76557 39.6029 5.23677C36.1675 3.80667 34.9688 3.64145 34.6212 4.54807ZM32.8687 9.82432C32.6713 10.3395 32.5099 10.8583 32.5099 10.9773C32.5099 11.0963 36.2509 11.2745 40.8229 11.3728L49.1358 11.5523L47.5872 10.2199C46.1875 9.01541 45.4232 8.8875 39.633 8.8875C34.3375 8.8875 33.1654 9.04976 32.8687 9.82432ZM31.0866 15.1764C30.8791 15.7188 30.7869 16.2411 30.8821 16.3364C30.9767 16.4318 36.0257 16.5934 42.1014 16.6959C53.0351 16.88 53.1398 16.87 52.3625 15.6975C51.6361 14.602 50.8239 14.5013 41.5209 14.3515C32.5891 14.2076 31.4223 14.3 31.0866 15.1764ZM29.5752 20.0997C29.2389 20.7298 28.9634 21.3959 28.9634 21.5801C28.9634 21.7643 34.4339 21.9153 41.1196 21.9153C48.3686 21.9153 53.7368 22.1628 54.4189 22.5282C55.2736 22.9865 55.5597 22.9492 55.5532 22.3801C55.5195 19.5567 52.9205 18.9544 40.7673 18.9544C30.9122 18.9544 30.145 19.0332 29.5752 20.0997ZM27.802 25.4292C27.4656 26.0593 27.1902 26.7184 27.1902 26.8943C27.1902 27.0701 31.151 27.2875 35.992 27.3775L44.7943 27.5409L35.3382 42.9374C30.1373 51.4054 25.7616 58.6329 25.615 58.9983C25.2172 59.9902 27.6501 60.2572 32.4201 59.7468C44.51 58.4523 55.189 47.8992 56.6845 35.7674C57.1627 31.8904 57.116 30.3366 56.4161 26.8599C55.9858 24.721 53.2734 24.284 40.4221 24.284C29.1549 24.284 28.3759 24.3544 27.802 25.4292ZM1.1827 39.9428C1.1827 40.6474 2.51322 42.9184 3.19237 43.3726C3.54998 43.6119 9.19774 43.8114 15.7428 43.8168C27.0064 43.825 27.6595 43.7646 27.9415 42.6827C28.2281 41.5843 27.7505 41.5322 15.6872 41.3504C6.13831 41.2065 2.90097 40.9666 2.15857 40.3484C1.62187 39.9013 1.1827 39.7189 1.1827 39.9428ZM4.52171 47.0992C5.1849 48.8295 7.07163 49.1552 16.4432 49.1552C25.2792 49.1552 25.8892 49.0829 26.1706 48.0052C26.3355 47.3727 26.3219 46.7066 26.141 46.5248C25.9596 46.343 20.9431 46.1943 14.9933 46.1943C5.53246 46.1943 4.21849 46.308 4.52171 47.0992ZM9.63869 53.0232C11.1838 54.3847 11.7341 54.4847 17.6969 54.4847C23.5361 54.4847 24.1231 54.3841 24.3973 53.3347C24.5623 52.7023 24.5487 52.0361 24.3678 51.8543C24.1863 51.6725 20.4247 51.5322 16.0087 51.5428L7.98012 51.5612L9.63869 53.0232ZM18.0285 58.0703C20.8645 59.4146 22.2251 59.5093 22.6531 58.3919C23.1472 57.1027 22.5213 56.8499 18.9641 56.9014L15.6641 56.9494L18.0285 58.0703Z" fill="#1FA713"/>
</svg>
