<svg width="76" height="76" viewBox="0 0 76 76" fill="none" xmlns="http://www.w3.org/2000/svg">
<path fill-rule="evenodd" clip-rule="evenodd" d="M32.9742 0.556575C31.968 0.923762 31.1624 1.71079 30.7275 2.75126C30.5539 3.16704 30.4974 3.98892 30.4974 6.09845V8.89454L29.1302 9.39064C28.3783 9.66345 27.2708 10.1197 26.6692 10.4047L25.5755 10.9227L23.6708 9.06595C21.5657 7.01407 20.7725 6.5347 19.4817 6.5347C17.9472 6.5347 17.6914 6.71032 14.2186 10.1514C10.5396 13.7967 10.2403 14.2414 10.3858 15.8458C10.4992 17.0972 10.9438 17.767 13.0458 19.8534L14.8346 21.6289L14.1719 23.0566C13.8075 23.8417 13.355 24.9534 13.1664 25.527L12.8235 26.5699L9.82455 26.6208C6.53127 26.6767 6.32549 26.727 5.33408 27.7184C4.28955 28.7628 4.2544 28.9702 4.25237 34.0936C4.25049 38.6044 4.2583 38.7198 4.61721 39.4906C5.17971 40.6986 6.41674 41.5936 7.52362 41.5936H7.99737V40.3625C7.99737 39.1544 7.98908 39.1281 7.54893 38.9458C6.80065 38.6358 6.74737 38.3083 6.74737 34.0169V30.0486L7.12424 29.6102L7.50112 29.1717L11.1477 29.1213L14.7942 29.0708L15.3041 27.3516C15.7802 25.7467 16.8861 23.2197 17.7052 21.8656L18.0603 21.2783L15.5289 18.73C12.1302 15.3086 12.0969 15.8625 15.9316 12.0278C18.5905 9.36892 18.9158 9.09361 19.3978 9.09361C19.876 9.09361 20.1908 9.3522 22.5182 11.6574L25.1067 14.2213L26.4349 13.4533C27.9299 12.5889 30.3635 11.5911 31.9427 11.1952L32.9974 10.9306V7.36454C32.9974 3.82017 32.9997 3.79579 33.3744 3.36017L33.7516 2.92173H37.9974H42.2432L42.6203 3.36017C42.995 3.79579 42.9974 3.82048 42.9974 7.35907V10.9195L44.2864 11.2692C45.9277 11.7145 48.5627 12.8206 49.8724 13.6144L50.888 14.2297L53.4766 11.6617C55.805 9.35157 56.1185 9.09361 56.5969 9.09361C57.0789 9.09361 57.4043 9.36892 60.0632 12.0278C63.8979 15.8625 63.8646 15.3086 60.4658 18.73L57.9344 21.2783L58.2891 21.8656C59.135 23.2667 60.2063 25.7081 60.6841 27.3244L61.2005 29.0708L64.8471 29.1213L68.4936 29.1717L68.8705 29.6102L69.2474 30.0486V34.0169C69.2474 38.3083 69.1941 38.6358 68.4458 38.9458C68.0057 39.1281 67.9974 39.1544 67.9974 40.3625V41.5936H68.4711C69.578 41.5936 70.815 40.6986 71.3775 39.4906C71.7364 38.7198 71.7443 38.6044 71.7424 34.0936C71.7403 28.9702 71.7052 28.7628 70.6607 27.7184C69.6693 26.727 69.4635 26.6767 66.1702 26.6208L63.1713 26.5699L62.8283 25.527C62.6397 24.9534 62.1872 23.8417 61.8228 23.0566L61.1602 21.6289L62.9489 19.8534C65.051 17.767 65.4955 17.0972 65.6089 15.8458C65.7544 14.2414 65.4552 13.7967 61.7761 10.1514C58.2716 6.67907 58.0438 6.52486 56.4349 6.53798C55.1778 6.54814 54.4402 7.00345 52.2972 9.0922L50.4193 10.9227L49.3255 10.4047C48.7239 10.1197 47.6166 9.66345 46.8646 9.39064L45.4974 8.89454L45.4939 6.06439C45.4902 2.90986 45.3785 2.43626 44.4107 1.46845C43.3607 0.41845 43.401 0.425481 38.2318 0.385169C34.6442 0.3572 33.4105 0.397356 32.9742 0.556575ZM35.8099 16.6877C31.2967 17.5145 28.3038 19.0281 25.4974 21.9024C22.5632 24.9074 20.8092 28.7144 20.5467 32.6483L20.4502 34.0936H21.7114H22.9725L23.0796 33.0389C23.2363 31.4945 23.5555 30.0594 24.0127 28.845C26.0116 23.5344 31.0272 19.7184 36.5933 19.2738C40.638 18.9506 44.3085 20.0381 47.3272 22.4541C50.4868 24.9827 52.5196 28.8288 52.9216 33.0389L53.0222 34.0936H54.2833H55.5446L55.448 32.6483C55.1849 28.7045 53.413 24.8602 50.4974 21.9066C48.0827 19.4603 45.5044 17.9631 42.2427 17.1128C41.0438 16.8003 40.2638 16.7084 38.4661 16.6675C37.22 16.6392 36.0247 16.6483 35.8099 16.6877ZM36.1399 29.3406C33.5164 30.0461 31.2508 32.3427 30.6632 34.8924C30.2205 36.8119 30.6257 39.058 31.7199 40.7508C32.4896 41.9416 33.4016 42.72 34.8724 43.4409C36.0332 44.01 36.0627 44.0155 38.0055 44.0155C39.951 44.0155 39.9761 44.0108 41.1305 43.4397C42.5908 42.7174 43.4257 42.0058 44.2347 40.7941C46.2005 37.8503 45.8868 34.128 43.4535 31.5269C41.5519 29.4939 38.7188 28.647 36.1399 29.3406ZM36.1224 32.0274C35.0792 32.427 33.7421 33.8155 33.3785 34.8764C32.5144 37.3978 33.591 40.0003 35.9557 41.1066C37.7549 41.9481 40.0843 41.5275 41.5078 40.1041C43.3103 38.3014 43.3867 35.2556 41.6772 33.3541C40.6739 32.2383 39.7733 31.8397 38.1536 31.7949C37.1989 31.7683 36.6278 31.8338 36.1224 32.0274ZM14.8899 34.3406C12.2664 35.0461 10.0008 37.3427 9.41315 39.8924C8.97049 41.8119 9.37565 44.058 10.4699 45.7508C11.2396 46.9416 12.1516 47.72 13.6224 48.4409C14.7831 49.01 14.8127 49.0155 16.7555 49.0155C18.701 49.0155 18.7261 49.0108 19.8805 48.4397C21.3408 47.7174 22.1757 47.0058 22.9847 45.7941C24.9505 42.8503 24.6367 39.128 22.2035 36.5269C20.3019 34.4939 17.4688 33.647 14.8899 34.3406ZM57.3899 34.3406C54.7664 35.0461 52.5008 37.3427 51.9132 39.8924C51.4705 41.8119 51.8757 44.058 52.9699 45.7508C53.7396 46.9416 54.6516 47.72 56.1224 48.4409C57.2832 49.01 57.3127 49.0155 59.2555 49.0155C61.201 49.0155 61.2261 49.0108 62.3805 48.4397C63.8408 47.7174 64.6757 47.0058 65.4847 45.7941C67.4505 42.8503 67.1368 39.128 64.7035 36.5269C62.8019 34.4939 59.9688 33.647 57.3899 34.3406ZM14.8724 37.0274C13.8292 37.427 12.4921 38.8155 12.1285 39.8764C11.2644 42.3978 12.341 45.0003 14.7056 46.1066C16.5049 46.9481 18.8342 46.5275 20.2578 45.1041C22.0603 43.3014 22.1367 40.2556 20.4272 38.3541C19.4239 37.2383 18.5233 36.8397 16.9036 36.7948C15.9489 36.7683 15.3778 36.8338 14.8724 37.0274ZM57.3724 37.0274C56.3293 37.427 54.9921 38.8155 54.6285 39.8764C53.7644 42.3978 54.841 45.0003 57.2057 46.1066C59.0049 46.9481 61.3343 46.5275 62.7579 45.1041C64.5603 43.3014 64.6368 40.2556 62.9272 38.3541C61.9239 37.2383 61.0233 36.8397 59.4036 36.7948C58.4489 36.7683 57.8778 36.8338 57.3724 37.0274ZM30.5755 45.5947C28.228 46.0983 25.4325 47.8916 24.0763 49.7639L23.6464 50.3572L16.6422 50.3895L9.63799 50.4217L8.44002 50.8306C6.50002 51.493 5.24486 52.2827 3.76143 53.7741C2.65471 54.8867 2.28705 55.3881 1.68768 56.6022C0.64252 58.7197 0.503301 59.5828 0.50002 63.9688C0.498614 66.0602 0.571895 68.0323 0.66877 68.5C1.2958 71.5288 3.96315 74.3164 6.9883 75.1044C7.74612 75.3017 9.11705 75.3436 14.8271 75.3436H21.7474V74.0936V72.8436H16.1224H10.4974V65.9686V59.0936H9.24737H7.99737V65.8934V72.6933L7.56768 72.5899C6.08893 72.2338 4.34236 70.7739 3.68971 69.3483C3.07299 68.0013 2.95908 66.9631 3.03627 63.3905C3.09658 60.6039 3.15705 59.9561 3.43721 59.0936C4.34924 56.2872 6.42908 54.2074 9.24737 53.2838C10.1827 52.9772 10.6864 52.9453 15.6214 52.8805C18.5686 52.8419 21.2802 52.8552 21.6472 52.9103L22.3144 53.0103L22.0266 54.1378C21.7632 55.1709 21.7425 55.9139 21.7822 63.0034L21.8255 70.7414L22.3247 71.7552C22.9724 73.0703 24.0655 74.1658 25.3411 74.778C26.3397 75.2574 26.4017 75.2663 29.0521 75.3145L31.7474 75.3638V65.3536V55.3436H30.4974H29.2474V64.1142V72.8847L28.1146 72.8113C26.4511 72.7033 25.3763 72.0566 24.6627 70.7342C24.3308 70.1189 24.3255 69.9936 24.3255 62.6874C24.3255 55.9291 24.3511 55.1824 24.6122 54.3361C25.546 51.3103 27.6133 49.2069 30.5755 48.2683C31.6292 47.9344 31.8975 47.9217 37.9193 47.9217C43.4099 47.9217 44.2905 47.9552 45.1672 48.1974C48.1393 49.0184 50.3786 51.1919 51.3227 54.1717C51.6603 55.2375 51.6693 55.4553 51.6693 62.6874C51.6693 69.6292 51.6503 70.1445 51.378 70.6561C50.6403 72.0409 49.5699 72.7003 47.8802 72.8108L46.7474 72.8847V64.1142V55.3436H45.4974H44.2474V65.3536V75.3638L46.9427 75.3145C49.5836 75.2664 49.6585 75.2558 50.6536 74.7831C51.9283 74.1778 53.0124 73.0908 53.6672 71.7609L54.1693 70.7414L54.2125 63.0034C54.2522 55.9139 54.2316 55.1709 53.9682 54.1378L53.6803 53.0103L54.3475 52.9103C54.7146 52.8552 57.4261 52.8419 60.3733 52.8805C65.3083 52.9453 65.8121 52.9772 66.7474 53.2838C69.5657 54.2074 71.6455 56.2872 72.5575 59.0936C72.8377 59.9561 72.8982 60.6039 72.9585 63.3905C73.0357 66.9631 72.9218 68.0013 72.305 69.3483C71.6524 70.7739 69.9058 72.2338 68.4271 72.5899L67.9974 72.6933V65.8934V59.0936H66.7474H65.4974V65.9686V72.8436H59.8724H54.2474V74.0936V75.3436H61.1677C68.7916 75.3436 69.0616 75.3164 70.8754 74.3684C72.1772 73.6878 73.9107 71.9233 74.5346 70.6431C75.4477 68.77 75.531 68.1239 75.4568 63.4919C75.3985 59.8514 75.3505 59.2084 75.0754 58.3775C74.4686 56.5455 73.6279 55.1878 72.2189 53.7653C70.7502 52.2824 69.4966 51.4936 67.5547 50.8306L66.3568 50.4217H59.3799H52.403L52.0486 49.9045C51.4171 48.9828 49.4532 47.2833 48.3602 46.7124C47.7739 46.4063 46.8021 45.9928 46.2005 45.7936C45.133 45.4402 44.9457 45.4306 38.388 45.3958C32.8997 45.3666 31.4689 45.403 30.5755 45.5947ZM32.9974 74.0936V75.3436H37.9974H42.9974V74.0936V72.8436H37.9974H32.9974V74.0936Z" fill="#1FA713"/>
</svg>
