<svg width="75" height="81" viewBox="0 0 75 81" fill="none" xmlns="http://www.w3.org/2000/svg">
<path fill-rule="evenodd" clip-rule="evenodd" d="M31.6642 0.493298C31.1897 0.825642 31.0647 1.43752 30.7484 4.97877C30.5967 6.67549 30.4331 8.1183 30.3848 8.18486C30.3364 8.25158 29.4158 8.59517 28.3389 8.94861C26.5975 9.52002 23.9592 10.701 22.6406 11.4994L22.1719 11.7831L19.3744 9.45564C16.9258 7.4183 16.5078 7.12814 16.022 7.12814C15.505 7.12814 15.1905 7.40377 11.4308 11.1516C9.21078 13.3644 7.35437 15.3333 7.30531 15.5266C7.25625 15.72 7.25828 16.0364 7.30969 16.2297C7.36125 16.423 8.41359 17.7891 9.64828 19.2653L11.8931 21.9494L10.773 24.1872C10.1569 25.418 9.37984 27.2688 9.04609 28.3C8.71234 29.3313 8.42375 30.1985 8.40469 30.2269C8.38562 30.2555 6.73391 30.4394 4.73438 30.6355C1.17813 30.9841 1.09063 31.0011 0.736719 31.4125L0.375 31.8331V37.5395V43.2459L0.806719 43.6777C1.29078 44.1617 1.25109 44.1544 5.62047 44.5681L8.44422 44.8356L8.87375 46.2553C9.4175 48.0528 10.3652 50.2934 11.2475 51.868L11.9334 53.0922L9.66938 55.8269C8.42422 57.3308 7.36156 58.7363 7.30781 58.95C7.25422 59.1638 7.28641 59.5056 7.37937 59.7095C7.60766 60.2108 13.4761 65.3975 13.9492 65.5163C14.7952 65.7284 14.9997 65.492 19.3756 59.2375C23.0059 54.0489 23.6405 53.0595 23.6477 52.5772C23.655 52.093 23.5055 51.8436 22.6167 50.8585C20.108 48.0778 18.4458 44.6527 17.7955 40.9235C17.492 39.1831 17.4978 35.8664 17.8073 34.0813C19.1964 26.0714 25.425 19.7267 33.5416 18.0533C35.5816 17.6328 38.7194 17.5978 40.8377 17.972C48.8411 19.386 55.1092 25.4788 56.8739 33.5597C57.2594 35.3252 57.3327 38.7656 57.0245 40.6434C56.3933 44.4913 54.6836 48.0455 52.0497 50.9861C51.0712 52.0785 50.9283 52.3878 51.1417 52.9494C51.3448 53.4833 59.3544 64.596 59.9255 65.136C60.6975 65.866 61.1095 65.7427 62.7567 64.2897C63.5522 63.5878 64.9539 62.3522 65.8716 61.5438C67.5327 60.0802 67.9023 59.5525 67.7308 58.8888C67.6813 58.6969 66.6914 57.4024 65.5312 56.0119C64.3711 54.6214 63.3656 53.3895 63.2967 53.2744C63.2177 53.1419 63.4291 52.5908 63.8717 51.7763C64.6859 50.2778 65.8273 47.5311 66.2964 45.942L66.6234 44.8342L69.4758 44.5692C73.7083 44.1761 73.8309 44.155 74.2345 43.7516L74.5938 43.3924V37.5531V31.7139L74.2028 31.3466C73.8445 31.01 73.5159 30.9499 70.2756 30.6264C68.3306 30.4324 66.6916 30.2163 66.6331 30.1463C66.5747 30.0761 66.4034 29.5969 66.2525 29.0813C65.74 27.3305 65.1805 25.9606 64.1644 23.9688L63.1506 21.9813L63.8312 21.1563C64.2056 20.7025 65.2336 19.4647 66.1153 18.4055C68.4806 15.5647 68.6744 16.1433 63.6891 11.1578C59.9233 7.3922 59.6227 7.12814 59.1006 7.12814C58.4684 7.12814 58.5464 7.07408 55.3322 9.74267C54.0625 10.7969 52.9589 11.6594 52.8798 11.6594C52.8008 11.6594 52.0114 11.2797 51.1258 10.8158C49.303 9.86064 47.1858 8.9958 45.6875 8.59392C45.1289 8.44424 44.6602 8.31674 44.6456 8.31064C44.6312 8.3047 44.4675 6.72033 44.2817 4.79002C44.0961 2.85955 43.8678 1.13705 43.7747 0.962048C43.4047 0.267204 43.37 0.263298 37.5583 0.258142C32.8123 0.253923 31.9573 0.287985 31.6642 0.493298ZM33.6562 3.00455C33.6562 3.05674 33.5123 4.58611 33.3366 6.40299C32.9631 10.2603 32.9292 10.3425 31.535 10.7739C27.4431 12.04 25.9878 12.642 23.7489 13.9944C23.0295 14.4289 22.2669 14.7844 22.0541 14.7844C21.6138 14.7844 21.5908 14.7678 18.433 12.1602L16.1003 10.2341L13.2489 13.0822L10.3977 15.9305L11.3053 17.037C11.8045 17.6458 12.8191 18.8778 13.5597 19.7752C14.5578 20.9845 14.9062 21.5224 14.9062 21.8542C14.9062 22.1167 14.5431 22.9188 14.028 23.7941C12.6875 26.0717 11.2884 29.558 10.9181 31.5431C10.8517 31.8991 10.6384 32.273 10.3763 32.4938C9.98875 32.8199 9.63766 32.8856 6.99531 33.1267C5.37375 33.2749 3.81844 33.435 3.53906 33.4825L3.03125 33.5692V37.5808V41.5924L6.48563 41.9316C8.86281 42.1649 10.0553 42.3461 10.3097 42.5128C10.5541 42.6728 10.7628 43.0592 10.9258 43.6525C11.8045 46.8524 12.8959 49.4902 14.2558 51.7013C14.6333 52.3149 14.9062 52.9522 14.9062 53.22C14.9062 53.692 14.3598 54.4358 11.6581 57.6411C10.7006 58.7769 10.5344 59.053 10.6927 59.2438C11.2409 59.9044 14.0019 62.1561 14.1142 62.0342C14.3773 61.7489 20.3941 53.0417 20.4764 52.8269C20.5248 52.7008 20.2609 52.2472 19.8675 51.7803C17.5247 48.9995 15.828 45.2527 15.1077 41.2688C14.7653 39.3749 14.7756 35.6586 15.1288 33.7011C15.9777 28.9945 18.0406 25.0661 21.4581 21.6488C26.7914 16.3153 33.917 14.0608 41.3802 15.345C49.3217 16.7116 56.0077 22.4413 58.7058 30.1924C59.6659 32.9511 59.8266 34.0144 59.8244 37.5969C59.8225 40.5222 59.7861 40.9522 59.405 42.5539C58.5694 46.0656 57.0602 49.145 54.8372 51.8744L54.1634 52.7014L57.5427 57.41C59.4012 59.9997 60.9709 62.1208 61.0311 62.1233C61.0911 62.1259 61.9155 61.4461 62.8628 60.6125C64.3503 59.3038 64.5577 59.0638 64.3816 58.8547C62.6298 56.776 60.3723 53.9777 60.2253 53.703C59.9798 53.2444 60.1059 52.7797 60.7483 51.7739C61.9803 49.8452 63.2172 46.9577 63.893 44.4325C64.4686 42.2813 64.3591 42.3441 68.192 41.9711C69.9512 41.8 71.5137 41.6599 71.6641 41.6597C71.9175 41.6594 71.9375 41.3617 71.9375 37.5969C71.9375 35.3625 71.9198 33.5305 71.8984 33.5258C71.877 33.5211 70.2916 33.3575 68.3753 33.1624C65.43 32.8625 64.8467 32.7611 64.603 32.5069C64.4444 32.3416 64.092 31.3977 63.82 30.4094C63.2017 28.1633 62.1906 25.7514 61.1014 23.925C60.1117 22.2652 60.0061 21.9788 60.2023 21.4847C60.2837 21.28 61.3113 19.9594 62.4859 18.5499L64.6217 15.9874L61.7669 13.1294L58.912 10.2714L58.1983 10.8606C57.8056 11.1847 56.6223 12.1639 55.5687 13.0364C54.5152 13.9091 53.4634 14.6706 53.2317 14.7288C52.9312 14.8042 52.6287 14.7302 52.1786 14.4708C49.0695 12.6806 46.885 11.7624 43.1875 10.6913C42.1561 10.3924 42.053 10.0806 41.7055 6.21689L41.4081 2.90939H37.5322C35.4005 2.90939 33.6562 2.9522 33.6562 3.00455ZM32.7062 21.9503C29.2278 23.4347 26.9591 26.7294 26.6808 30.7002C26.38 34.9945 28.3859 38.8856 31.8492 40.7253L32.8723 41.2688L32.8737 51.1163L32.875 60.9638L31.9131 61.6631C30.0264 63.0349 28.3786 65.4567 27.8073 67.6975C27.4555 69.0772 27.4855 71.6205 27.8711 73.1288C28.3214 74.8892 29.0164 76.0905 30.3863 77.4761C31.3352 78.436 31.8488 78.8113 32.8916 79.307C34.7394 80.1858 35.5858 80.3899 36.1263 80.0869C36.8984 79.6541 36.9459 79.343 36.6994 76.3403C36.5761 74.84 36.4738 73.5316 36.472 73.4325C36.4639 72.9806 38.4389 72.741 39.4025 73.0769C39.8264 73.2247 39.8753 73.3027 39.8183 73.741C39.6902 74.7234 39.4375 78.0564 39.4375 78.7638C39.4375 79.3316 39.5236 79.5722 39.84 79.8886C40.1825 80.2311 40.3436 80.2797 40.9212 80.2145C41.8194 80.1134 43.3495 79.3777 44.5472 78.4714C48.3395 75.6013 49.5008 69.6028 47.1456 65.05C46.3808 63.5714 44.5975 61.7781 43.1491 61.0311L42.0948 60.4875L42.0944 50.6255L42.0938 40.7635L42.7397 40.336C45.6175 38.4316 47.5625 34.8566 47.5625 31.4716C47.5625 28.6685 46.6752 26.2872 44.9487 24.457C43.7989 23.2383 42.6647 22.5049 41.0013 21.9049C39.5755 21.3905 39.0661 21.3916 38.5478 21.9099C38.143 22.3147 38.1417 22.3247 38.2417 24.1364C38.297 25.1374 38.3873 26.5261 38.4425 27.2225L38.5428 28.4889L38.0294 28.6678C37.3802 28.8942 36.3481 28.8975 35.7108 28.6753C35.1269 28.4717 35.1298 28.512 35.4392 25.0188C35.5534 23.7297 35.6103 22.5695 35.5658 22.4406C35.5211 22.3117 35.3423 22.0481 35.1683 21.8547C34.7367 21.3753 33.9855 21.4044 32.7062 21.9503ZM41.053 25.817C41.3686 29.2994 41.3664 29.5242 41.0108 29.9728C40.8264 30.2053 40.2052 30.6272 39.6302 30.9103C38.6378 31.3989 38.4966 31.425 36.8469 31.425C35.1678 31.425 35.0733 31.4066 34.0448 30.8781C33.4594 30.5774 32.84 30.1413 32.6683 29.9089C32.3687 29.5036 32.3637 29.3966 32.5419 27.27C32.6441 26.051 32.6972 25.0233 32.6602 24.9863C32.5053 24.8314 30.6994 26.8027 30.3322 27.5272C28.9734 30.2086 29.0606 33.5642 30.5498 35.9019C31.4014 37.2386 33.0291 38.5033 34.4375 38.9227C34.6523 38.9867 34.9863 39.1839 35.1797 39.3608L35.5312 39.6827V51.0344V62.3861L35.1797 62.7C34.9863 62.8725 34.5058 63.1974 34.112 63.4216C33.1945 63.9442 31.5809 65.667 31.0763 66.6631C29.6859 69.4066 30.0184 72.9077 31.8881 75.2133C32.4534 75.9105 33.7711 76.9091 33.9241 76.7563C33.9733 76.707 33.9375 75.7041 33.8444 74.5275C33.6437 71.9884 33.6969 71.8197 34.9306 71.0822C36.0467 70.4153 36.973 70.2086 38.5305 70.2791C39.9645 70.3439 41.3309 70.8522 42.1328 71.6194C42.6239 72.0891 42.6648 72.6235 42.4109 75.2491C42.3322 76.0631 42.2964 76.7578 42.3312 76.7927C42.3661 76.8277 42.8427 76.4075 43.3903 75.8594C45.8425 73.4041 46.3961 69.6692 44.7931 66.3956C44.128 65.0369 42.9594 63.9677 41.2356 63.1405C40.4214 62.7495 39.6838 62.2963 39.5964 62.133C39.493 61.9399 39.4375 57.9438 39.4375 50.6888C39.4375 41.0891 39.4697 39.4955 39.6692 39.2105C39.7967 39.0286 40.275 38.6686 40.732 38.4106C42.3225 37.513 43.6822 35.8953 44.3603 34.0939C45.652 30.6619 44.3955 26.7286 41.4666 25.0358L40.9553 24.7403L41.053 25.817Z" fill="#1FA713"/>
</svg>
