<svg width="30" height="30" viewBox="0 0 30 30" fill="none" xmlns="http://www.w3.org/2000/svg">
<path d="M14.8 28.8298C14.6667 28.8298 14.5333 28.7965 14.4 28.7298L10.3 26.7298C8.36667 25.7965 6.83333 24.3965 5.7 22.5298C4.56667 20.6632 4 18.6298 4 16.4298V6.32983C4 6.06317 4.08333 5.8465 4.25 5.67983C4.41667 5.51317 4.6 5.42983 4.8 5.42983H7.7C8.9 5.42983 10.0333 5.0965 11.1 4.42983L14.3 2.32983C14.6333 2.12983 14.9667 2.12983 15.3 2.32983L18.5 4.42983C19.5 5.0965 20.6 5.42983 21.8 5.42983H24.7C24.9667 5.36317 25.1833 5.42983 25.35 5.62983C25.5167 5.82983 25.6 6.06317 25.6 6.32983V16.4298C25.6 18.6298 25.0333 20.6632 23.9 22.5298C22.7667 24.3965 21.2 25.7965 19.2 26.7298L15.2 28.7298C15.0667 28.7965 14.9333 28.8298 14.8 28.8298ZM5.7 7.22983V16.4298C5.7 18.2965 6.2 20.0132 7.2 21.5798C8.2 23.1465 9.5 24.3298 11.1 25.1298L14.8 26.9298L18.5 25.1298C20.1 24.3298 21.4 23.1465 22.4 21.5798C23.4 20.0132 23.9 18.2965 23.9 16.4298V7.22983H21.9C20.3 7.22983 18.8333 6.7965 17.5 5.92983L14.8 4.12983L12.1 5.92983C10.7667 6.7965 9.3 7.22983 7.7 7.22983H5.7ZM14.8 16.2298C13.6667 16.2298 12.7167 15.8298 11.95 15.0298C11.1833 14.2298 10.8 13.2798 10.8 12.1798C10.8 11.0798 11.1833 10.1465 11.95 9.37983C12.7167 8.61317 13.6667 8.22983 14.8 8.22983C15.9333 8.22983 16.8833 8.61317 17.65 9.37983C18.4167 10.1465 18.8 11.0798 18.8 12.1798C18.8 13.2798 18.4167 14.2298 17.65 15.0298C16.8833 15.8298 15.9333 16.2298 14.8 16.2298ZM14.8 9.92983C14.2 9.92983 13.6833 10.1465 13.25 10.5798C12.8167 11.0132 12.6 11.5465 12.6 12.1798C12.6 12.8132 12.8167 13.3465 13.25 13.7798C13.6833 14.2132 14.2 14.4298 14.8 14.4298C15.4 14.4298 15.9167 14.2132 16.35 13.7798C16.7833 13.3465 17 12.8132 17 12.1798C17 11.5465 16.7833 11.0132 16.35 10.5798C15.9167 10.1465 15.4 9.92983 14.8 9.92983ZM20.1 21.1298H18.4C18.4 20.5965 18.2167 20.1632 17.85 19.8298C17.4833 19.4965 17.0667 19.3298 16.6 19.3298H13C12.5333 19.3298 12.1167 19.4965 11.75 19.8298C11.3833 20.1632 11.2 20.5965 11.2 21.1298H9.5C9.5 20.1298 9.83333 19.2798 10.5 18.5798C11.1667 17.8798 12 17.5298 13 17.5298H16.6C17.5333 17.5298 18.35 17.8798 19.05 18.5798C19.75 19.2798 20.1 20.1298 20.1 21.1298Z" fill="#773E91"/>
</svg>
