<svg width="27" height="27" viewBox="0 0 27 27" fill="none" xmlns="http://www.w3.org/2000/svg">
<path d="M25.8 18.1001L17 6.0001L18.2 2.3001C18.4 1.76676 18.3167 1.2501 17.95 0.750097C17.5833 0.250097 17.1 9.72748e-05 16.5 9.72748e-05H10.1C9.5 9.72748e-05 9.01667 0.250097 8.65 0.750097C8.28333 1.2501 8.2 1.76676 8.4 2.3001L9.7 6.0001L0.8 18.1001C0.266667 18.8334 0 19.7001 0 20.7001V22.2001C0 23.4001 0.433333 24.4334 1.3 25.3001C2.16667 26.1668 3.2 26.6001 4.4 26.6001H22.2C23.4 26.6001 24.4333 26.1668 25.3 25.3001C26.1667 24.4334 26.6 23.4001 26.6 22.2001V20.7001C26.6667 19.7001 26.4 18.8334 25.8 18.1001ZM16.5 1.7001L15.3 5.3001H11.3L10.1 1.7001H16.5ZM24.8 22.2001C24.8 22.9334 24.55 23.5668 24.05 24.1001C23.55 24.6334 22.9333 24.9001 22.2 24.9001H4.4C3.66667 24.9001 3.03333 24.6334 2.5 24.1001C1.96667 23.5668 1.7 22.9334 1.7 22.2001V20.7001C1.76667 20.1001 1.96667 19.5668 2.3 19.1001L11.1 7.1001H15.5L24.3 19.1001C24.7 19.5668 24.9 20.1001 24.9 20.7001L24.8 22.2001ZM16 16.9001H11.5V15.4001H16.5V13.7001H14.2V12.4001H12.4V13.6001H10.6C10.3333 13.6668 10.1167 13.7834 9.95 13.9501C9.78333 14.1168 9.7 14.3001 9.7 14.5001V17.7001C9.7 17.9668 9.78333 18.1834 9.95 18.3501C10.1167 18.5168 10.3333 18.6001 10.6 18.6001H15.1V20.1001H10.1V21.8001H12.4V23.1001H14.2V21.8001H16C16.2 21.8001 16.4 21.7168 16.6 21.5501C16.8 21.3834 16.9 21.1668 16.9 20.9001V17.7001C16.9 17.5001 16.8 17.3168 16.6 17.1501C16.4 16.9834 16.2 16.9001 16 16.9001Z" fill="#773E91"/>
</svg>
