<svg width="30" height="30" viewBox="0 0 30 30" fill="none" xmlns="http://www.w3.org/2000/svg">
<path d="M22.7095 17.6C21.9095 17.6 21.2095 17.3333 20.6095 16.8L19.2095 15.4L17.7095 16.9C17.5095 17.1 17.2762 17.2 17.0095 17.2C16.7429 17.2 16.5095 17.1 16.3095 16.9C16.1095 16.7 16.0095 16.4666 16.0095 16.2C16.0095 15.9333 16.1095 15.7 16.3095 15.5L18.6095 13.3C18.7429 13.1 18.9595 13 19.2595 13C19.5595 13 19.8095 13.1 20.0095 13.3L22.1095 15.4C22.3762 15.6 22.6762 15.6333 23.0095 15.5C23.3429 15.3666 23.5262 15.15 23.5595 14.85C23.5929 14.55 23.5095 14.3 23.3095 14.1L21.2095 12C21.0095 11.8 20.9095 11.5666 20.9095 11.3C20.9095 11.0333 21.0095 10.8 21.2095 10.6L23.8095 7.99996C24.0095 7.79996 24.2429 7.69995 24.5095 7.69995C24.7762 7.69995 25.0095 7.79996 25.2095 7.99996L26.4095 9.19995C26.6095 9.39996 26.8262 9.49996 27.0595 9.49996C27.2929 9.49996 27.4929 9.41662 27.6595 9.24996C27.8262 9.08329 27.9095 8.86662 27.9095 8.59995C27.9095 8.33329 27.8429 8.13329 27.7095 7.99996L26.4095 6.69995C26.2095 6.56662 26.1095 6.34995 26.1095 6.04996C26.1095 5.74996 26.2095 5.49996 26.4095 5.29996L27.3095 4.49996C27.5762 4.23329 27.7262 3.88329 27.7595 3.44996C27.7929 3.01662 27.6429 2.64996 27.3095 2.34996C26.9762 2.04996 26.5929 1.91662 26.1595 1.94996C25.7262 1.98329 25.3762 2.16662 25.1095 2.49996C24.9095 2.69996 24.6762 2.78329 24.4095 2.74996C24.1429 2.71662 23.9095 2.59996 23.7095 2.39996C23.5095 2.19996 23.4262 1.96662 23.4595 1.69996C23.4929 1.43329 23.6095 1.19996 23.8095 0.999956C24.4762 0.33329 25.2595 -4.3869e-05 26.1595 -4.3869e-05C27.0595 -4.3869e-05 27.8762 0.316624 28.6095 0.949957C29.3429 1.58329 29.7095 2.39996 29.7095 3.39996C29.7095 4.39996 29.3762 5.23329 28.7095 5.89996L28.5095 5.99996L29.1095 6.59995C29.6429 7.13329 29.9095 7.79996 29.9095 8.59995C29.9095 9.39996 29.6262 10.0833 29.0595 10.65C28.4929 11.2166 27.8262 11.5 27.0595 11.5C26.2929 11.5 25.6095 11.2 25.0095 10.6L24.5095 10.1L23.3095 11.3L24.7095 12.8C25.2429 13.3333 25.5095 14 25.5095 14.8C25.5095 15.6 25.2262 16.2666 24.6595 16.8C24.0929 17.3333 23.4429 17.6 22.7095 17.6ZM22.6095 3.49996C22.4095 3.29996 22.1762 3.19996 21.9095 3.19996C21.6429 3.19996 21.4095 3.29996 21.2095 3.49996L10.4095 14.4C9.14286 13.9333 7.84286 13.8166 6.50952 14.05C5.17619 14.2833 3.99286 14.8166 2.95952 15.65C1.92619 16.4833 1.14286 17.5333 0.609524 18.8C0.0761905 20.0666 -0.107143 21.35 0.0595238 22.65C0.22619 23.95 0.67619 25.15 1.40952 26.25C2.14286 27.35 3.12619 28.2 4.35952 28.8C5.59286 29.4 6.87619 29.6833 8.20952 29.65C9.54286 29.6166 10.7762 29.25 11.9095 28.55C13.0429 27.85 13.9429 26.9166 14.6095 25.75C15.2762 24.5833 15.6262 23.3333 15.6595 22C15.6929 20.6666 15.4095 19.4166 14.8095 18.25C14.2095 17.0833 13.3762 16.1 12.3095 15.3L22.6095 4.89996C22.8095 4.69995 22.9095 4.46662 22.9095 4.19995C22.9095 3.93329 22.8095 3.69996 22.6095 3.49996ZM13.6095 21.8C13.6095 22.8666 13.3595 23.85 12.8595 24.75C12.3595 25.65 11.6429 26.3666 10.7095 26.9C9.77619 27.4333 8.77619 27.7 7.70952 27.7C6.64286 27.7 5.65952 27.4333 4.75952 26.9C3.85952 26.3666 3.15952 25.65 2.65952 24.75C2.15952 23.85 1.90952 22.8666 1.90952 21.8C1.90952 20.7333 2.15952 19.75 2.65952 18.85C3.15952 17.95 3.85952 17.2333 4.75952 16.7C5.65952 16.1666 6.64286 15.9 7.70952 15.9C8.77619 15.9 9.77619 16.1666 10.7095 16.7C11.6429 17.2333 12.3595 17.95 12.8595 18.85C13.3595 19.75 13.6095 20.7333 13.6095 21.8ZM5.90952 24.6C5.70952 24.6666 5.50952 24.6333 5.30952 24.5C5.10952 24.3666 4.97619 24.2 4.90952 24C4.84286 23.8 4.82619 23.6 4.85952 23.4C4.89286 23.2 5.00952 23.0333 5.20952 22.9L6.10952 22C6.37619 21.7333 6.69286 21.6333 7.05952 21.7C7.42619 21.7666 7.65952 21.9833 7.75952 22.35C7.85952 22.7166 7.77619 23.0333 7.50952 23.3L6.60952 24.3C6.40952 24.5 6.17619 24.6 5.90952 24.6Z" fill="#773E91"/>
</svg>
