<svg width="249" height="249" viewBox="0 0 249 249" fill="none" xmlns="http://www.w3.org/2000/svg">
<circle cx="124.341" cy="124.764" r="123.4" fill="#D9D9D9" fill-opacity="0.03" stroke="#A83217" stroke-width="0.884587"/>
<path d="M94.3125 146.475L90.997 116.441L119.519 127.489L122.341 157.151L94.3125 146.475Z" stroke="#A83217" stroke-width="1.76917"/>
<path d="M110.159 134.438L106.844 104.404L135.366 115.452L138.187 145.114L110.159 134.438Z" stroke="#A83217" stroke-width="1.76917"/>
<path d="M126.006 122.401L122.69 92.3667L151.212 103.415L154.034 133.077L126.006 122.401Z" stroke="#A83217" stroke-width="1.76917"/>
<path d="M139.547 22.6159C139.472 23.2102 139.359 23.7386 139.207 24.2013C139.062 24.6647 138.87 25.0759 138.634 25.4349C138.402 25.7946 138.126 26.1021 137.803 26.3574C137.486 26.6134 137.123 26.8286 136.712 27.003L138.473 30.43C138.507 30.5272 138.52 30.6129 138.51 30.6872L138.489 30.8586C138.472 30.99 138.451 31.0628 138.426 31.0771C138.401 31.0913 138.36 31.0948 138.303 31.0876L137.197 30.9479L131.627 30.2438L131.806 28.8211L136.426 29.4049L132.268 21.3737L132.288 21.2109L133.942 21.42L136.29 26.0703C136.592 25.9285 136.84 25.7567 137.034 25.5548C137.228 25.3529 137.384 25.1231 137.504 24.8654C137.624 24.602 137.716 24.3089 137.78 23.9861C137.85 23.664 137.909 23.3116 137.957 22.9288L138.082 21.9432L139.607 22.136L139.547 22.6159Z" fill="white"/>
<path d="M148.086 33.1044L146.68 32.7433L148.929 23.9826L150.334 24.3437L148.086 33.1044Z" fill="white"/>
<path d="M161.246 37.5448L159.897 37.0103L162.052 31.5642C162.249 31.0662 162.353 30.7017 162.364 30.4706C162.384 30.2309 162.365 30.0593 162.307 29.9558C162.266 29.9024 162.225 29.8491 162.185 29.7958C162.151 29.7392 162.113 29.7024 162.07 29.6855L158.336 28.206L158.863 26.8726L162.55 28.333C162.887 28.4666 163.146 28.6251 163.328 28.8084C163.511 28.9864 163.646 29.1945 163.731 29.4328C163.85 29.7276 163.889 30.0836 163.847 30.5009C163.808 30.9128 163.649 31.4722 163.369 32.1791L161.246 37.5448Z" fill="white"/>
<path d="M183.576 46.9637C183.129 47.3645 182.688 47.6529 182.254 47.8288C181.824 48.0001 181.409 48.0905 181.011 48.0999C180.617 48.1128 180.248 48.0579 179.903 47.9352C179.561 47.8079 179.255 47.646 178.985 47.4496L178.587 47.1601L179.389 46.0556L179.557 46.1775C179.738 46.3096 179.941 46.4217 180.166 46.514C180.391 46.6062 180.626 46.6597 180.872 46.6744C181.121 46.6845 181.376 46.642 181.637 46.5471C181.903 46.4555 182.167 46.2919 182.431 46.0563L185.833 43.0183L180.424 39.0868L181.267 37.9265L188.01 42.8282C188.056 42.862 188.079 42.9037 188.079 42.9533C188.082 42.9982 188.061 43.0325 188.015 43.0562L183.576 46.9637ZM175.498 48.8556L174.324 48.0022L179.441 40.9562L180.614 41.8096L175.498 48.8556Z" fill="white"/>
<path d="M198.133 51.7995L193.776 55.4576C193.272 55.8769 192.772 56.1656 192.276 56.3239C191.784 56.4779 191.298 56.5237 190.82 56.4613C190.345 56.4029 189.882 56.2483 189.43 55.9976C188.983 55.7427 188.547 55.4161 188.123 55.0178L187.726 54.6451C187.315 54.2587 186.981 53.8779 186.725 53.5029C186.469 53.1278 186.308 52.7396 186.242 52.3382C186.185 51.9366 186.233 51.5112 186.385 51.0622C186.547 50.6129 186.832 50.119 187.243 49.5803L190.824 44.9319L191.919 45.9611L189.248 49.4012L189.814 49.9336C190.137 50.2372 190.482 50.3914 190.849 50.3962C191.228 50.4047 191.631 50.1862 192.057 49.7408L193.921 47.8422L195.004 48.8596L193.18 50.6897C192.852 51.022 192.516 51.2669 192.171 51.4245C191.825 51.582 191.475 51.6562 191.121 51.647C190.766 51.6377 190.413 51.551 190.061 51.3868C189.714 51.2184 189.372 50.9765 189.037 50.661L188.583 50.2351L188.389 50.4674C188.131 50.8015 187.951 51.1067 187.85 51.383C187.748 51.6592 187.716 51.9211 187.752 52.1685C187.788 52.416 187.886 52.6574 188.044 52.8929C188.21 53.1281 188.43 53.3739 188.702 53.6302L189.13 54.0325C189.407 54.2928 189.687 54.5081 189.969 54.6786C190.252 54.849 190.54 54.9581 190.835 55.0059C191.134 55.0495 191.44 55.0215 191.755 54.922C192.074 54.8264 192.402 54.6408 192.739 54.3653L197.025 50.7584L198.133 51.7995Z" fill="white"/>
<path d="M198.671 66.1232L197.746 65.0047L202.258 61.2701C202.67 60.9286 202.937 60.6592 203.058 60.462C203.191 60.2618 203.258 60.1024 203.257 59.9836C203.247 59.9172 203.236 59.8508 203.226 59.7844C203.224 59.7187 203.209 59.6682 203.179 59.6326L200.62 56.5368L201.724 55.6225L204.251 58.6783C204.482 58.9579 204.633 59.2218 204.704 59.4699C204.779 59.7143 204.796 59.9614 204.756 60.2113C204.718 60.5269 204.581 60.8575 204.344 61.2034C204.111 61.5455 203.702 61.959 203.116 62.4437L198.671 66.1232Z" fill="white"/>
<path d="M217.363 82.973L216.406 82.9271L216.791 80.5593L214.686 81.8467L214.241 80.9008L216.565 80.1597L214.4 78.9257L214.979 78.147L216.918 79.7931L216.8 77.2897L217.762 77.3047L217.433 79.7512L219.422 78.4611L219.867 79.4069L217.612 80.1729L219.666 81.354L219.088 82.1133L217.263 80.5279L217.363 82.973Z" fill="white"/>
<path d="M226.129 107.664C225.54 107.777 225.003 107.832 224.516 107.831C224.03 107.836 223.58 107.781 223.166 107.667C222.752 107.558 222.374 107.39 222.032 107.162C221.69 106.94 221.373 106.661 221.08 106.324L218.365 109.058C218.284 109.121 218.206 109.159 218.132 109.173L217.963 109.205C217.832 109.23 217.757 109.233 217.735 109.214C217.714 109.194 217.698 109.156 217.687 109.1L217.479 108.005L216.427 102.489L217.836 102.22L218.708 106.794L225.061 100.358L225.222 100.327L225.534 101.965L221.837 105.634C222.065 105.878 222.305 106.061 222.557 106.183C222.809 106.304 223.076 106.383 223.358 106.417C223.646 106.45 223.953 106.447 224.28 106.408C224.608 106.375 224.961 106.322 225.34 106.249L226.316 106.063L226.604 107.574L226.129 107.664Z" fill="white"/>
<path d="M218.794 119.034L218.703 117.585L227.729 117.017L227.82 118.465L218.794 119.034Z" fill="white"/>
<path d="M218.641 132.926L218.732 131.477L224.577 131.845C225.112 131.879 225.491 131.865 225.714 131.804C225.948 131.75 226.105 131.679 226.186 131.592C226.224 131.536 226.262 131.481 226.3 131.426C226.344 131.377 226.367 131.329 226.37 131.283L226.622 127.274L228.053 127.364L227.804 131.321C227.781 131.684 227.711 131.979 227.593 132.208C227.48 132.438 227.324 132.63 227.123 132.785C226.88 132.989 226.553 133.135 226.144 133.225C225.74 133.315 225.159 133.336 224.4 133.288L218.641 132.926Z" fill="white"/>
<path d="M216.593 157.086C216.073 156.784 215.663 156.453 215.361 156.095C215.065 155.738 214.851 155.372 214.719 154.996C214.585 154.625 214.523 154.257 214.533 153.891C214.548 153.526 214.608 153.185 214.711 152.868L214.863 152.399L216.161 152.821L216.097 153.019C216.027 153.232 215.984 153.46 215.966 153.703C215.947 153.945 215.969 154.185 216.031 154.423C216.099 154.663 216.218 154.893 216.389 155.112C216.558 155.336 216.796 155.538 217.101 155.716L221.041 158.014L223.106 151.655L224.47 152.098L221.895 160.027C221.878 160.082 221.845 160.116 221.798 160.131C221.756 160.148 221.717 160.138 221.68 160.102L216.593 157.086ZM212.296 149.984L212.744 148.604L221.025 151.296L220.577 152.676L212.296 149.984Z" fill="white"/>
<path d="M216.497 172.434L211.672 169.417C211.118 169.067 210.689 168.68 210.385 168.257C210.086 167.837 209.893 167.389 209.804 166.914C209.713 166.445 209.717 165.957 209.815 165.449C209.919 164.944 210.095 164.429 210.343 163.902L210.574 163.41C210.814 162.899 211.073 162.464 211.35 162.105C211.628 161.745 211.947 161.472 212.308 161.286C212.672 161.107 213.091 161.021 213.566 161.028C214.042 161.042 214.6 161.162 215.239 161.386L220.765 163.358L220.126 164.718L216.029 163.238L215.699 163.942C215.51 164.343 215.47 164.719 215.579 165.069C215.688 165.433 216.02 165.748 216.575 166.016L218.957 167.204L218.324 168.548L216.02 167.378C215.603 167.169 215.266 166.924 215.01 166.644C214.753 166.364 214.575 166.054 214.474 165.714C214.373 165.374 214.346 165.011 214.394 164.626C214.446 164.243 214.571 163.843 214.767 163.427L215.031 162.864L214.75 162.751C214.353 162.608 214.007 162.531 213.713 162.52C213.419 162.509 213.16 162.559 212.936 162.67C212.712 162.781 212.513 162.948 212.338 163.171C212.166 163.402 212 163.687 211.841 164.025L211.591 164.557C211.429 164.901 211.311 165.234 211.236 165.555C211.161 165.876 211.147 166.184 211.192 166.48C211.243 166.777 211.365 167.06 211.557 167.329C211.746 167.603 212.024 167.858 212.39 168.094L217.144 171.058L216.497 172.434Z" fill="white"/>
<path d="M203.048 177.373L203.825 176.147L208.769 179.287C209.222 179.574 209.56 179.745 209.785 179.799C210.016 179.864 210.188 179.878 210.301 179.84C210.361 179.81 210.421 179.78 210.481 179.75C210.543 179.728 210.586 179.697 210.611 179.658L212.762 176.266L213.973 177.035L211.849 180.383C211.655 180.689 211.451 180.914 211.237 181.058C211.027 181.205 210.798 181.298 210.548 181.337C210.236 181.399 209.88 181.37 209.478 181.251C209.08 181.135 208.561 180.874 207.919 180.466L203.048 177.373Z" fill="white"/>
<path d="M192.808 200.37L192.556 199.445L194.926 199.08L193.052 197.474L193.814 196.759L195.236 198.741L195.741 196.299L196.66 196.61L195.694 198.963L198.037 198.077L198.32 198.997L195.892 199.44L197.733 200.935L196.972 201.65L195.547 199.741L195.059 202.061L194.158 201.745L195.102 199.519L192.808 200.37Z" fill="white"/>
<path d="M172.046 216.343C171.758 215.818 171.539 215.324 171.389 214.861C171.235 214.4 171.148 213.955 171.129 213.525C171.104 213.098 171.148 212.687 171.259 212.291C171.364 211.897 171.532 211.509 171.762 211.126L168.324 209.389C168.239 209.331 168.179 209.269 168.143 209.203L168.06 209.052C167.996 208.936 167.97 208.864 167.982 208.838C167.994 208.812 168.025 208.785 168.075 208.757L169.052 208.22L173.971 205.514L174.662 206.771L170.582 209.015L178.664 213.068L178.743 213.212L177.282 214.015L172.652 211.633C172.49 211.925 172.391 212.21 172.352 212.488C172.314 212.765 172.322 213.043 172.377 213.322C172.435 213.606 172.532 213.897 172.67 214.196C172.803 214.497 172.962 214.817 173.148 215.156L173.626 216.026L172.279 216.767L172.046 216.343Z" fill="white"/>
<path d="M158.976 212.88L160.325 212.346L163.653 220.756L162.304 221.29L158.976 212.88Z" fill="white"/>
<path d="M145.721 217.029L147.127 216.668L148.582 222.341C148.716 222.86 148.846 223.216 148.972 223.409C149.097 223.615 149.213 223.743 149.321 223.793C149.385 223.812 149.449 223.831 149.514 223.85C149.574 223.876 149.626 223.883 149.671 223.872L153.561 222.873L153.918 224.261L150.078 225.248C149.726 225.338 149.423 225.363 149.169 225.321C148.916 225.285 148.685 225.196 148.476 225.053C148.206 224.884 147.966 224.619 147.754 224.257C147.544 223.901 147.344 223.355 147.155 222.619L145.721 217.029Z" fill="white"/>
<path d="M122.121 222.543C122.247 221.956 122.434 221.463 122.682 221.066C122.93 220.674 123.212 220.357 123.529 220.116C123.84 219.874 124.171 219.701 124.522 219.597C124.873 219.499 125.216 219.45 125.55 219.45H126.042V220.815H125.835C125.611 220.815 125.38 220.844 125.144 220.902C124.908 220.959 124.686 221.054 124.479 221.187C124.272 221.325 124.09 221.509 123.935 221.74C123.773 221.97 123.655 222.258 123.58 222.604L122.613 227.061H129.299V228.495H120.963C120.905 228.495 120.862 228.475 120.833 228.435C120.805 228.4 120.802 228.36 120.825 228.314L122.121 222.543ZM127.546 216.263H128.997V224.97H127.546V216.263Z" fill="white"/>
<path d="M107.502 227.191L108.878 221.67C109.039 221.035 109.274 220.507 109.583 220.088C109.89 219.674 110.256 219.351 110.68 219.121C111.098 218.889 111.564 218.742 112.077 218.679C112.589 218.622 113.134 218.63 113.711 218.703L114.251 218.771C114.811 218.842 115.304 218.953 115.732 219.106C116.16 219.259 116.518 219.478 116.807 219.764C117.09 220.056 117.301 220.428 117.441 220.881C117.575 221.339 117.634 221.906 117.618 222.584L117.452 228.449L115.961 228.26L116.101 223.907L115.33 223.809C114.89 223.754 114.52 223.832 114.221 224.044C113.909 224.26 113.712 224.673 113.629 225.284L113.235 227.916L111.761 227.729L112.162 225.177C112.232 224.715 112.36 224.319 112.547 223.989C112.734 223.658 112.973 223.393 113.266 223.192C113.558 222.991 113.895 222.853 114.276 222.779C114.656 222.711 115.074 222.706 115.531 222.764L116.149 222.842L116.169 222.54C116.182 222.118 116.148 221.765 116.068 221.482C115.987 221.199 115.86 220.968 115.685 220.789C115.51 220.611 115.29 220.472 115.023 220.375C114.751 220.282 114.429 220.213 114.057 220.166L113.474 220.092C113.097 220.044 112.744 220.035 112.416 220.063C112.087 220.091 111.79 220.172 111.523 220.307C111.256 220.447 111.024 220.65 110.828 220.916C110.626 221.18 110.47 221.523 110.358 221.945L109.01 227.382L107.502 227.191Z" fill="white"/>
<path d="M98.6518 215.922L100.057 216.283L98.6016 221.956C98.4685 222.475 98.411 222.85 98.4291 223.08C98.4388 223.321 98.479 223.488 98.5496 223.584C98.5968 223.632 98.644 223.68 98.6912 223.727C98.7314 223.779 98.7738 223.811 98.8184 223.822L102.709 224.822L102.353 226.211L98.5121 225.224C98.1607 225.134 97.8836 225.009 97.6806 224.85C97.4763 224.697 97.3168 224.507 97.2023 224.281C97.0476 224.004 96.9646 223.655 96.9532 223.236C96.9404 222.823 97.0285 222.248 97.2175 221.511L98.6518 215.922Z" fill="white"/>
<path d="M73.6308 213.281L74.4321 212.755L75.5123 214.897L76.459 212.618L77.3749 213.122L75.9301 215.088L78.4069 214.813L78.3962 215.784L75.8602 215.591L77.427 217.548L76.6401 218.101L75.4683 215.928L74.6169 218.141L73.7011 217.637L75.0755 215.692L72.7194 215.944L72.741 214.99L75.1488 215.2L73.6308 213.281Z" fill="white"/>
<path d="M52.035 198.459C52.4449 198.022 52.847 197.661 53.2413 197.375C53.6313 197.086 54.0276 196.866 54.4302 196.715C54.8286 196.559 55.2332 196.473 55.644 196.456C56.0507 196.435 56.4715 196.475 56.9064 196.576L57.4954 192.767C57.5249 192.668 57.5652 192.592 57.6165 192.537L57.7347 192.411C57.8254 192.314 57.885 192.268 57.9136 192.271C57.9422 192.274 57.9775 192.295 58.0195 192.335L58.8316 193.098L62.9237 196.943L61.9424 197.988L58.5491 194.8L57.1927 203.743L57.0804 203.863L55.8654 202.721L56.6996 197.579C56.3718 197.515 56.0702 197.509 55.7947 197.558C55.5193 197.607 55.2575 197.701 55.0093 197.839C54.7572 197.982 54.5104 198.165 54.269 198.388C54.0233 198.608 53.7685 198.859 53.5044 199.14L52.8246 199.864L51.704 198.811L52.035 198.459Z" fill="white"/>
<path d="M51.2898 184.949L52.2146 186.067L45.2473 191.835L44.3225 190.716L51.2898 184.949Z" fill="white"/>
<path d="M43.2529 173.619L44.0303 174.844L39.0859 177.984C38.6338 178.271 38.3354 178.505 38.1907 178.685C38.0333 178.867 37.9476 179.017 37.9338 179.135C37.9354 179.202 37.9371 179.269 37.9388 179.336C37.9325 179.402 37.9417 179.454 37.9664 179.493L40.1179 182.885L38.9073 183.654L36.7836 180.305C36.5893 179.999 36.4726 179.718 36.4337 179.463C36.3898 179.211 36.4034 178.964 36.4744 178.721C36.5517 178.413 36.7296 178.102 37.0082 177.789C37.282 177.478 37.7398 177.119 38.3815 176.712L43.2529 173.619Z" fill="white"/>
<path d="M30.7199 152.868C31.3177 152.807 31.8438 152.832 32.2982 152.945C32.7471 153.06 33.1355 153.23 33.4633 153.457C33.7894 153.678 34.056 153.939 34.2631 154.241C34.4647 154.545 34.6171 154.856 34.7202 155.173L34.8723 155.642L33.5743 156.064L33.5103 155.867C33.4409 155.653 33.3424 155.443 33.2147 155.236C33.087 155.029 32.9281 154.848 32.7381 154.691C32.5426 154.537 32.3113 154.421 32.0442 154.345C31.7754 154.263 31.4651 154.239 31.1133 154.275L26.5754 154.733L28.6405 161.092L27.2768 161.536L24.702 153.607C24.6843 153.552 24.6901 153.505 24.7195 153.465C24.7435 153.427 24.781 153.412 24.8319 153.419L30.7199 152.868ZM38.368 156.086L38.8162 157.466L30.5352 160.158L30.087 158.778L38.368 156.086Z" fill="white"/>
<path d="M21.7813 140.396L27.4569 139.999C28.1113 139.956 28.6856 140.016 29.18 140.18C29.6687 140.344 30.0883 140.593 30.4388 140.925C30.7883 141.251 31.0721 141.648 31.2904 142.116C31.503 142.586 31.6638 143.106 31.7728 143.678L31.8747 144.212C31.9804 144.767 32.0267 145.271 32.0135 145.725C32.0004 146.179 31.9024 146.587 31.7196 146.951C31.53 147.309 31.2414 147.625 30.8538 147.898C30.4595 148.167 29.9379 148.399 29.289 148.593L23.6596 150.248L23.3781 148.771L27.5617 147.559L27.4161 146.796C27.3331 146.36 27.1446 146.033 26.8507 145.813C26.5489 145.583 26.0948 145.524 25.4885 145.633L22.8637 146.073L22.5854 144.613L25.1371 144.205C25.5974 144.129 26.0136 144.129 26.3857 144.205C26.7577 144.28 27.0845 144.426 27.366 144.642C27.6476 144.858 27.8823 145.135 28.0701 145.475C28.2523 145.815 28.3865 146.212 28.4728 146.664L28.5893 147.275L28.883 147.202C29.2884 147.083 29.6133 146.942 29.8576 146.778C30.1019 146.614 30.2821 146.422 30.3981 146.2C30.5142 145.979 30.5775 145.726 30.5879 145.443C30.5916 145.155 30.5584 144.827 30.4883 144.459L30.3783 143.882C30.3071 143.509 30.2074 143.17 30.0791 142.866C29.9508 142.563 29.7815 142.305 29.5711 142.093C29.355 141.882 29.0904 141.724 28.7774 141.62C28.4632 141.51 28.0886 141.467 27.6536 141.491L22.0661 141.889L21.7813 140.396Z" fill="white"/>
<path d="M29.7621 128.49L29.8532 129.938L24.0078 130.306C23.4733 130.34 23.0992 130.401 22.8855 130.489C22.6599 130.573 22.5126 130.663 22.4437 130.76C22.4128 130.819 22.382 130.879 22.3511 130.939C22.3141 130.993 22.2971 131.043 22.3 131.089L22.552 135.098L21.1209 135.188L20.8721 131.231C20.8493 130.869 20.8822 130.567 20.9709 130.324C21.0537 130.083 21.1848 129.872 21.364 129.694C21.5802 129.461 21.8858 129.274 22.2809 129.134C22.6703 128.994 23.2443 128.9 24.003 128.852L29.7621 128.49Z" fill="white"/>
<path d="M24.5353 103.864L25.2827 104.464L23.58 106.153L26.04 106.35L25.8443 107.377L23.5282 106.609L24.555 108.881L23.6292 109.17L23.0276 106.698L21.6521 108.793L20.8828 108.215L22.5863 106.429L20.2185 106.303L20.4142 105.276L22.6891 105.983L21.7209 103.819L22.6349 103.545L23.1796 105.901L24.5353 103.864Z" fill="white"/>
<path d="M31.9482 78.7324C32.4901 78.9875 32.9576 79.2586 33.3509 79.5456C33.7466 79.8274 34.0785 80.1365 34.3467 80.4728C34.6174 80.8039 34.8243 81.1623 34.9675 81.548C35.1132 81.9285 35.2055 82.3412 35.2445 82.786L39.047 82.1703C39.15 82.1678 39.2354 82.1825 39.3031 82.2144L39.4594 82.288C39.5793 82.3444 39.6421 82.3868 39.6479 82.415C39.6538 82.4432 39.6444 82.4833 39.6199 82.5354L39.1456 83.5439L36.756 88.625L35.4586 88.0142L37.4402 83.8007L28.5193 85.2721L28.3708 85.2022L29.0804 83.6935L34.2271 82.899C34.1857 82.5676 34.0989 82.2785 33.9668 82.0317C33.8347 81.7849 33.6646 81.5647 33.4564 81.3713C33.2431 81.1753 32.9928 80.997 32.7057 80.8364C32.4209 80.6705 32.104 80.5053 31.7549 80.341L30.8561 79.9178L31.5105 78.5263L31.9482 78.7324Z" fill="white"/>
<path d="M44.5597 73.8469L43.7823 75.0724L36.147 70.2241L36.9243 68.9986L44.5597 73.8469Z" fill="white"/>
<path d="M52.8446 62.6964L51.9198 63.8148L47.408 60.0802C46.9954 59.7387 46.681 59.527 46.4647 59.4452C46.2432 59.3516 46.0742 59.3164 45.9579 59.3397C45.8945 59.362 45.8312 59.3844 45.7679 59.4067C45.7038 59.421 45.6571 59.4459 45.6277 59.4814L43.0681 62.5772L41.9635 61.6628L44.4901 58.6069C44.7212 58.3273 44.952 58.1296 45.1823 58.0137C45.4082 57.8941 45.6475 57.8306 45.9004 57.8231C46.2173 57.8013 46.5677 57.8745 46.9516 58.0428C47.3311 58.2074 47.8137 58.5321 48.3993 59.0168L52.8446 62.6964Z" fill="white"/>
<path d="M68.696 44.3538C68.9386 44.9036 69.0766 45.4121 69.1097 45.8792C69.1395 46.3417 69.0974 46.764 68.9833 47.1459C68.8739 47.5245 68.7076 47.859 68.4843 48.1495C68.2577 48.4353 68.0093 48.6764 67.7391 48.8728L67.3408 49.1623L66.5389 48.0579L66.7066 47.936C66.8882 47.8039 67.0576 47.6451 67.2148 47.4597C67.3719 47.2743 67.4954 47.067 67.5853 46.8379C67.6718 46.6042 67.7103 46.3484 67.7007 46.0705C67.6958 45.7893 67.6221 45.4869 67.4796 45.1633L65.6431 40.9875L60.2349 44.919L59.3923 43.7586L66.1351 38.8569C66.1817 38.8231 66.2285 38.814 66.2754 38.8297C66.319 38.8407 66.3451 38.8716 66.3535 38.9225L68.696 44.3538ZM67.998 52.6255L66.8241 53.4788L61.7078 46.4328L62.8816 45.5795L67.998 52.6255Z" fill="white"/>
<path d="M77.7916 31.9944L79.9217 37.2706C80.1644 37.8798 80.2843 38.4449 80.2814 38.9657C80.2757 39.4815 80.1692 39.9575 79.962 40.3935C79.7598 40.8268 79.4697 41.2197 79.0917 41.5723C78.7109 41.9197 78.2657 42.2336 77.7561 42.514L77.2792 42.7763C76.7847 43.0483 76.3196 43.2483 75.8839 43.3762C75.4482 43.5041 75.0295 43.5372 74.6277 43.4757C74.2281 43.4062 73.8386 43.2294 73.459 42.9452C73.0817 42.6532 72.7006 42.2286 72.3155 41.6714L69.0039 36.8282L70.3209 36.1038L72.7649 39.7087L73.4461 39.334C73.8347 39.1203 74.0879 38.8397 74.2058 38.4922C74.3311 38.1341 74.2478 37.6836 73.9561 37.1408L72.7279 34.7798L74.0298 34.0637L75.2054 36.3649C75.42 36.7792 75.5487 37.1751 75.5918 37.5524C75.6348 37.9296 75.5971 38.2856 75.4787 38.6202C75.3603 38.9548 75.1687 39.264 74.904 39.5476C74.6365 39.8262 74.3009 40.0765 73.8972 40.2985L73.3523 40.5983L73.513 40.855C73.7508 41.204 73.9853 41.4694 74.2166 41.6511C74.4478 41.8328 74.6867 41.9446 74.9331 41.9865C75.1796 42.0284 75.4391 42.0105 75.7118 41.9328C75.9868 41.8473 76.2883 41.7143 76.6163 41.5339L77.131 41.2508C77.464 41.0676 77.7552 40.868 78.0045 40.652C78.2538 40.436 78.4467 40.1951 78.5833 39.9294C78.7171 39.6586 78.7853 39.3582 78.7879 39.0281C78.7956 38.6952 78.7206 38.3256 78.5631 37.9193L76.4594 32.7272L77.7916 31.9944Z" fill="white"/>
<path d="M91.5719 35.9063L90.2226 36.4408L88.0676 30.9948C87.8705 30.4967 87.6969 30.1598 87.5468 29.9839C87.3978 29.7951 87.2667 29.6829 87.1535 29.6472C87.0872 29.6363 87.021 29.6254 86.9547 29.6145C86.8917 29.5961 86.8388 29.5954 86.7959 29.6123L83.0614 31.0918L82.5337 29.7584L86.2201 28.298C86.5574 28.1644 86.8549 28.1023 87.1126 28.1117C87.3681 28.1158 87.6085 28.1754 87.8337 28.2906C88.1219 28.4242 88.3937 28.6572 88.6491 28.9897C88.9024 29.3167 89.1689 29.8337 89.4486 30.5406L91.5719 35.9063Z" fill="white"/>
<path d="M113.367 23.326L113.027 24.2223L110.895 23.1248L111.468 25.5252L110.431 25.6563L110.445 23.2165L108.602 24.8948L108.041 24.1037L110.205 22.7678L107.788 22.1068L108.1 21.1967L110.325 22.2651L109.713 19.974L110.75 19.843L110.781 22.2249L112.54 20.6356L113.083 21.4202L111.011 22.666L113.367 23.326Z" fill="white"/>
</svg>
