<svg width="42" height="42" viewBox="0 0 42 42" fill="none" xmlns="http://www.w3.org/2000/svg">
<path d="M10.8333 1.56294L27.5696 0.101152C33.9454 -0.455719 39.5807 4.27187 40.1408 10.6473L41.6111 27.3829C41.8804 30.4476 40.9211 33.4931 38.9443 35.8494C36.9675 38.2058 34.1352 39.68 31.0703 39.9477L14.3341 41.4095C7.95833 41.9663 2.32296 37.2387 1.76285 30.8633L0.292549 14.1278C0.0233 11.0631 0.982583 8.01753 2.95937 5.66117C4.93615 3.3048 7.76851 1.83063 10.8333 1.56294ZM10.7849 5.58239C8.88262 5.74855 7.12461 6.66355 5.89764 8.12612C4.67067 9.58869 4.07525 11.479 4.24237 13.3812L5.78268 30.9137C6.131 34.8784 9.6206 37.8059 13.5855 37.4596L31.1188 35.9282C33.0211 35.7621 34.7791 34.8471 36.0061 33.3845C37.233 31.9219 37.8284 30.0316 37.6613 28.1294L36.121 10.5969C35.7727 6.63216 32.2831 3.7047 28.3182 4.051L10.7849 5.58239ZM30.2743 6.89157C30.9348 6.83388 31.5913 7.04093 32.0994 7.46718C32.6075 7.89343 32.9256 8.50395 32.9836 9.16445C33.0416 9.82495 32.8349 10.4813 32.4089 10.9891C31.9828 11.497 31.3724 11.8147 30.7119 11.8724C30.0514 11.9301 29.3948 11.723 28.8867 11.2968C28.3786 10.8705 28.0606 10.26 28.0026 9.5995C27.9445 8.93901 28.1513 8.28265 28.5773 7.77481C29.0033 7.26697 29.6138 6.94926 30.2743 6.89157ZM20.0767 10.7937C22.7188 10.5629 25.3449 11.3911 27.3773 13.0961C29.4096 14.8011 30.6818 17.2432 30.9139 19.8852C31.146 22.5272 30.3191 25.1526 28.6149 27.184C26.9108 29.2153 24.4691 30.4862 21.827 30.7169C19.1849 30.9477 16.5588 30.1195 14.5264 28.4145C12.4941 26.7095 11.2219 24.2674 10.9898 21.6254C10.7577 18.9834 11.5846 16.358 13.2888 14.3266C14.9929 12.2953 17.4346 11.0244 20.0767 10.7937ZM20.4267 14.7783C18.8415 14.9168 17.3765 15.6793 16.354 16.8981C15.3315 18.1169 14.8353 19.6922 14.9746 21.2774C15.1139 22.8626 15.8772 24.3278 17.0966 25.3508C18.316 26.3738 19.8917 26.8707 21.477 26.7323C23.0622 26.5938 24.5272 25.8313 25.5497 24.6125C26.5722 23.3937 27.0684 21.8184 26.9291 20.2332C26.7898 18.648 26.0265 17.1828 24.8071 16.1598C23.5877 15.1368 22.012 14.6399 20.4267 14.7783Z" fill="white"/>
</svg>
