<svg width="20" height="37" viewBox="0 0 20 37" fill="none" xmlns="http://www.w3.org/2000/svg">
<path d="M15.9097 18.5002L0.92382 2.86437C0.80044 2.73836 0.702898 2.58876 0.636837 2.42423C0.570776 2.2597 0.53751 2.0835 0.538963 1.90583C0.540417 1.72816 0.576563 1.55254 0.645306 1.38915C0.71405 1.22575 0.814026 1.07782 0.939453 0.953916C1.06488 0.830009 1.21326 0.732586 1.37602 0.667286C1.53877 0.601985 1.71267 0.570104 1.88764 0.573486C2.06261 0.576868 2.23519 0.615447 2.39538 0.68699C2.55557 0.758533 2.70019 0.861619 2.82088 0.990283L18.7032 17.5632C18.9436 17.8141 19.0781 18.1502 19.0781 18.5002C19.0781 18.8502 18.9436 19.1864 18.7032 19.4373L2.82088 36.0102C2.70019 36.1389 2.55557 36.242 2.39538 36.3135C2.23519 36.385 2.06261 36.4236 1.88764 36.427C1.71267 36.4304 1.53877 36.3985 1.37602 36.3332C1.21326 36.2679 1.06488 36.1705 0.939453 36.0466C0.814026 35.9227 0.71405 35.7747 0.645306 35.6113C0.576563 35.4479 0.540417 35.2723 0.538963 35.0947C0.53751 34.917 0.570776 34.7408 0.636837 34.5763C0.702898 34.4117 0.80044 34.2621 0.92382 34.1361L15.9097 18.5002Z" fill="white"/>
</svg>
