<svg width="19" height="37" viewBox="0 0 19 37" fill="none" xmlns="http://www.w3.org/2000/svg">
<path d="M3.16842 18.5002L18.1543 2.86437C18.2777 2.73836 18.3752 2.58876 18.4413 2.42423C18.5073 2.2597 18.5406 2.0835 18.5392 1.90583C18.5377 1.72816 18.5016 1.55254 18.4328 1.38915C18.3641 1.22575 18.2641 1.07782 18.1387 0.953916C18.0132 0.830009 17.8649 0.732586 17.7021 0.667286C17.5394 0.601985 17.3655 0.570104 17.1905 0.573486C17.0155 0.576868 16.8429 0.615447 16.6827 0.68699C16.5226 0.758533 16.3779 0.861619 16.2572 0.990283L0.374894 17.5632C0.134502 17.8141 0 18.1502 0 18.5002C0 18.8502 0.134502 19.1864 0.374894 19.4373L16.2572 36.0102C16.3779 36.1389 16.5226 36.242 16.6827 36.3135C16.8429 36.385 17.0155 36.4236 17.1905 36.427C17.3655 36.4304 17.5394 36.3985 17.7021 36.3332C17.8649 36.2679 18.0132 36.1705 18.1387 36.0466C18.2641 35.9227 18.3641 35.7747 18.4328 35.6113C18.5016 35.4479 18.5377 35.2723 18.5392 35.0947C18.5406 34.917 18.5073 34.7408 18.4413 34.5763C18.3752 34.4117 18.2777 34.2621 18.1543 34.1361L3.16842 18.5002Z" fill="white"/>
</svg>
